<?xml version="1.0" encoding="iso-8859-1"?>
<!-- Generator: Adobe Illustrator 19.0.0, SVG Export Plug-In . SVG Version: 6.00 Build 0)  -->
<svg version="1.1" id="Layer_1" xmlns="http://www.w3.org/2000/svg" xmlns:xlink="http://www.w3.org/1999/xlink" x="0px" y="0px"
	 viewBox="0 0 512.043 512.043" style="enable-background:new 0 0 512.043 512.043;" xml:space="preserve">
<g>
	<g>
		<g>
			<path d="M8.576,136.555H8.491c-4.71,0-8.491,3.823-8.491,8.533c0,4.71,3.866,8.533,8.576,8.533s8.533-3.823,8.533-8.533
				C17.109,140.378,13.286,136.555,8.576,136.555z"/>
			<path d="M110.976,17.088c4.71,0,8.533-3.823,8.533-8.533s-3.823-8.533-8.533-8.533h-0.085c-4.71,0-8.491,3.823-8.491,8.533
				S106.266,17.088,110.976,17.088z"/>
			<path d="M503.509,170.688h-0.085c-4.71,0-8.491,3.823-8.491,8.533s3.866,8.533,8.576,8.533s8.533-3.823,8.533-8.533
				S508.22,170.688,503.509,170.688z"/>
			<path d="M330.274,133.252c-14.404-9.438-30.583-16.29-47.898-19.703c-4.625-0.939-9.105,2.091-10.027,6.724
				c-0.904,4.617,2.099,9.105,6.724,10.018c44.092,8.704,80.196,42.359,92.006,85.76c1.033,3.797,4.471,6.298,8.226,6.298
				c0.742,0,1.493-0.102,2.244-0.299c4.548-1.237,7.236-5.931,5.99-10.479c-2.662-9.788-6.434-19.123-11.128-27.913l33.826-33.826
				c3.226,3.226,7.501,5.001,12.066,5.001c4.557,0,8.841-1.775,12.066-5.001l24.132-24.132h0.009
				c3.319,3.328,7.697,4.992,12.066,4.992s8.738-1.664,12.066-4.992l24.149-24.141c6.639-6.656,6.639-17.476-0.009-24.132
				L434.381,5.022c-6.673-6.665-17.493-6.647-24.141,0l-24.141,24.141c-6.648,6.647-6.648,17.468,0,24.132l-24.132,24.132
				c-6.656,6.656-6.656,17.485,0,24.132L330.274,133.252z M398.174,65.361l30.165,30.165c3.328,3.337,8.73,3.337,12.066,0
				c3.328-3.328,3.328-8.73,0-12.066l-36.198-36.198l-6.033-6.033l24.132-24.141l72.414,72.405l-24.141,24.132l-6.042-6.033
				c-0.836-0.828-1.8-1.451-2.824-1.869c-3.081-1.254-6.741-0.631-9.242,1.869l-30.165,30.174l-42.24-42.24l-6.033-6.033
				L398.174,65.361z M374.033,113.626l24.141,24.141l-30.95,30.959c-6.639-9.336-14.456-17.749-23.142-25.148L374.033,113.626z"/>
			<path d="M16.853,273.088c0,9.412,7.654,17.067,17.067,17.067v179.2c0,4.71,3.814,8.533,8.533,8.533
				c4.719,0,8.533-3.823,8.533-8.533v-179.2h375.467c4.719,0,8.533-3.823,8.533-8.533s-3.814-8.533-8.533-8.533H33.92v-17.067h8.533
				c4.719,0,8.533-3.823,8.533-8.533c0-110.054,89.958-196.267,204.8-196.267c30.49,0,55.791,2.176,80.154,12.8
				c4.335,1.903,9.353-0.094,11.23-4.412c1.886-4.318-0.094-9.344-4.42-11.23c-28.646-12.501-58.726-14.225-86.963-14.225
				c-121.429,0-217.131,89.284-221.653,204.8H33.92c-9.412,0-17.067,7.654-17.067,17.067V273.088z"/>
			<path d="M33.92,51.221c0,4.71,3.814,8.533,8.533,8.533c4.719,0,8.533-3.823,8.533-8.533c4.719,0,8.533-3.823,8.533-8.533
				c0-4.71-3.814-8.533-8.533-8.533c0-4.71-3.814-8.533-8.533-8.533c-4.719,0-8.533,3.823-8.533,8.533
				c-4.719,0-8.533,3.823-8.533,8.533C25.387,47.398,29.201,51.221,33.92,51.221z"/>
			<path d="M213.12,477.888c4.719,0,8.533-3.823,8.533-8.533v-76.8c0-28.237-22.963-51.2-51.2-51.2c-28.237,0-51.2,22.963-51.2,51.2
				v76.8c0,4.71,3.814,8.533,8.533,8.533c4.719,0,8.533-3.823,8.533-8.533v-76.8c0-18.825,15.309-34.133,34.133-34.133
				s34.133,15.309,34.133,34.133v76.8C204.587,474.065,208.401,477.888,213.12,477.888z"/>
			<path d="M272.853,366.955c0,14.114,11.486,25.6,25.6,25.6s25.6-11.486,25.6-25.6s-11.486-25.6-25.6-25.6
				S272.853,352.841,272.853,366.955z M306.987,366.955c0,4.702-3.823,8.533-8.533,8.533s-8.533-3.831-8.533-8.533
				s3.823-8.533,8.533-8.533S306.987,362.253,306.987,366.955z"/>
			<path d="M477.653,238.955h-0.393c-0.922-24.585-5.641-48.614-14.481-71.475c-1.698-4.403-6.673-6.579-11.034-4.881
				c-4.403,1.698-6.588,6.639-4.881,11.034c8.081,20.898,12.416,42.854,13.329,65.323H76.587c-4.719,0-8.533,3.823-8.533,8.533
				s3.814,8.533,8.533,8.533h401.067v17.067h-8.533c-4.719,0-8.533,3.823-8.533,8.533v187.733c0,4.71,3.814,8.533,8.533,8.533
				c4.719,0,8.533-3.823,8.533-8.533v-179.2c9.412,0,17.067-7.654,17.067-17.067v-17.067
				C494.72,246.609,487.066,238.955,477.653,238.955z"/>
			<path d="M358.187,366.955c0,14.114,11.486,25.6,25.6,25.6s25.6-11.486,25.6-25.6s-11.486-25.6-25.6-25.6
				S358.187,352.841,358.187,366.955z M392.32,366.955c0,4.702-3.823,8.533-8.533,8.533s-8.533-3.831-8.533-8.533
				s3.823-8.533,8.533-8.533S392.32,362.253,392.32,366.955z"/>
			<path d="M486.187,494.955h-460.8c-4.719,0-8.533,3.823-8.533,8.533s3.814,8.533,8.533,8.533h460.8
				c4.719,0,8.533-3.823,8.533-8.533S490.906,494.955,486.187,494.955z"/>
		</g>
	</g>
</g>
</svg>
