<svg width="1440" height="1119" viewBox="0 0 1440 1119" fill="none" xmlns="http://www.w3.org/2000/svg">
<g clip-path="url(#clip0)">
<path d="M61.3036 117.727V88.8545H56.8234V121.606C56.8234 122.427 57.2714 123.173 57.9435 123.546L86.3178 139.959L88.5579 136.079L63.469 121.606L148.368 72.6652L214.749 110.938L233.267 121.606L208.253 136.079L210.493 139.959L238.867 123.62C239.54 123.247 239.988 122.501 239.988 121.681V88.9291H235.507V117.801L150.608 68.7112V0H146.128V68.7112L61.3036 117.727Z" fill="#F76342"/>
<path d="M181.297 18.8751H176.817V51.6266C176.817 52.4473 177.265 53.1933 177.937 53.5664L206.312 69.9795L208.552 66.1L183.537 51.6266L240.062 19.0243V13.8765L181.297 47.7472V18.8751Z" fill="#F76342"/>
<path d="M0 19.0243L28.3744 2.61117L113.274 51.6266L88.1846 66.1L90.4247 69.9795L118.799 53.5664C119.471 53.1934 119.919 52.4473 119.919 51.6266V18.8751H115.439V47.7472L32.7799 0H24.0436L0 13.8765V19.0243Z" fill="#F76342"/>
<path d="M235.507 257.611L150.608 208.596V110.639L175.697 125.113L177.937 121.233L149.563 104.82C149.19 104.596 148.816 104.522 148.443 104.522C148.069 104.522 147.621 104.596 147.323 104.82L118.948 121.233L121.188 125.113L146.277 110.639V208.596L61.3036 257.611V228.739H56.8234V261.49C56.8234 262.311 57.2714 263.057 57.9435 263.43L86.3178 279.843L88.5579 275.964L63.469 261.416L81.987 250.747L83.1071 250.15L148.368 212.475L212.808 249.628L233.267 261.416L208.253 275.889L210.493 279.769L238.867 263.43C239.54 263.057 239.988 262.311 239.988 261.49V228.739H235.507V257.611Z" fill="#F76342"/>
<path d="M181.297 158.759H176.817V191.511C176.817 192.332 177.265 193.078 177.937 193.451L206.312 209.864L208.552 205.984L183.537 191.511L240.062 158.909V153.761L181.297 187.632V158.759Z" fill="#F76342"/>
<path d="M239.988 53.1933V50.6568L238.867 51.3282L239.988 53.1933Z" fill="#F76342"/>
<path d="M113.348 191.511L88.2593 205.984L90.4993 209.864L118.874 193.451C119.546 193.078 119.994 192.332 119.994 191.511V158.759H115.514V187.632L30.6145 138.691V40.7343L55.6287 55.2077L57.8688 51.3282L29.4944 34.9897C29.1211 34.7659 28.7477 34.6913 28.3744 34.6913C28.001 34.6913 27.553 34.7659 27.2543 34.9897L0 50.6568V53.1933L1.12004 55.1331L26.1343 40.6597V138.616L0 153.761V158.909L28.3744 142.495L113.348 191.511Z" fill="#F76342"/>
<path d="M175.697 264.997L177.937 261.117L149.563 244.704C149.19 244.48 148.816 244.406 148.443 244.406C148.07 244.406 147.621 244.48 147.323 244.704L118.948 261.117L121.189 264.997L146.203 250.523V279.769H150.683V250.523L175.697 264.997Z" fill="#F76342"/>
<path d="M30.6145 180.619L55.6287 195.092L57.8688 191.213L29.4944 174.799C29.1211 174.576 28.7477 174.501 28.3744 174.501C28.001 174.501 27.553 174.576 27.2543 174.799L0 190.541V193.078L1.12004 195.017L26.1343 180.544V278.5L24.0436 279.694H32.7052L30.6145 278.5V180.619V180.619Z" fill="#F76342"/>
<path d="M239.988 193.078V190.541L238.867 191.138L239.988 193.078Z" fill="#F76342"/>
<path d="M61.3036 397.495V368.549H56.8234V401.3C56.8234 402.121 57.2714 402.867 57.9435 403.24L86.3178 419.653L88.5579 415.774L63.469 401.3L148.368 352.359L214.749 390.632L233.267 401.3L208.253 415.774L210.493 419.653L238.867 403.314C239.54 402.941 239.988 402.195 239.988 401.375V368.549H235.507V397.421L150.608 348.405V279.769H146.128V348.48L61.3036 397.495Z" fill="#F76342"/>
<path d="M181.297 298.644H176.817V331.395C176.817 332.216 177.265 332.962 177.937 333.335L206.312 349.748L208.552 345.869L183.537 331.395L240.062 298.793V293.645L181.297 327.516V298.644Z" fill="#F76342"/>
<path d="M0 298.793L28.3744 282.38L113.274 331.395L88.1846 345.869L90.4247 349.748L118.799 333.335C119.471 332.962 119.919 332.216 119.919 331.395V298.644H115.439V327.516L32.7799 279.769H24.0436L0 293.645V298.793Z" fill="#F76342"/>
<path d="M235.507 537.38L150.608 488.364V390.408L175.697 404.881L177.937 401.002L149.563 384.589C149.19 384.365 148.816 384.29 148.443 384.29C148.069 384.29 147.621 384.365 147.323 384.589L118.948 401.002L121.188 404.881L146.277 390.408V488.364L61.3036 537.38V508.507H56.8234V541.259C56.8234 542.08 57.2714 542.826 57.9435 543.199L86.3178 559.612L88.5579 555.732L63.469 541.184L81.987 530.516L83.1071 529.919L148.368 492.244L212.808 529.397L233.267 541.184L208.253 555.658L210.493 559.537L238.867 543.199C239.54 542.826 239.988 542.08 239.988 541.259V508.507H235.507V537.38Z" fill="#F76342"/>
<path d="M181.297 438.528H176.817V471.28C176.817 472.1 177.265 472.846 177.937 473.219L206.312 489.632L208.552 485.753L183.537 471.28L240.062 438.677V433.529L181.297 467.4V438.528Z" fill="#F76342"/>
<path d="M239.988 332.962V330.425L238.867 331.022L239.988 332.962Z" fill="#F76342"/>
<path d="M113.348 471.28L88.2593 485.753L90.4993 489.632L118.874 473.219C119.546 472.846 119.994 472.1 119.994 471.28V438.528H115.514V467.4L30.6145 418.385V320.428L55.6287 334.902L57.8688 331.022L29.4944 314.684C29.1211 314.46 28.7477 314.385 28.3744 314.385C28.001 314.385 27.553 314.46 27.2543 314.684L0 330.425V332.962L1.12004 334.902L26.1343 320.428V418.385L0 433.529V438.677L28.3744 422.264L113.348 471.28Z" fill="#F76342"/>
<path d="M175.697 544.691L177.937 540.811L149.563 524.398C149.19 524.175 148.816 524.1 148.443 524.1C148.07 524.1 147.621 524.175 147.323 524.398L118.948 540.811L121.189 544.691L146.203 530.218V559.537H150.683V530.292L175.697 544.691Z" fill="#F76342"/>
<path d="M30.6145 460.313L55.6287 474.786L57.8688 470.907L29.4944 454.493C29.1211 454.27 28.7477 454.195 28.3744 454.195C28.001 454.195 27.553 454.27 27.2543 454.493L0 470.31V472.846L1.12004 474.786L26.209 460.313V558.269L24.1182 559.463H32.7799L30.6891 558.269V460.313H30.6145Z" fill="#F76342"/>
<path d="M239.988 472.846V470.31L238.867 470.907L239.988 472.846Z" fill="#F76342"/>
<path d="M61.3036 677.189V648.317H56.8234V681.069C56.8234 681.889 57.2714 682.636 57.9435 683.009L86.3178 699.422L88.5579 695.542L63.469 681.069L148.368 632.128L214.749 670.4L233.267 681.069L208.253 695.542L210.493 699.422L238.867 683.083C239.54 682.71 239.988 681.964 239.988 681.143V648.317H235.507V677.189L150.608 628.174V559.537H146.128V628.248L61.3036 677.189Z" fill="#F76342"/>
<path d="M181.297 578.412H176.817V611.164C176.817 611.985 177.265 612.731 177.937 613.104L206.312 629.517L208.552 625.637L183.537 611.164L240.062 578.562V573.414L181.297 607.284V578.412Z" fill="#F76342"/>
<path d="M0 578.562L28.3744 562.148L113.274 611.164L88.1846 625.637L90.4247 629.517L118.799 613.104C119.471 612.731 119.919 611.985 119.919 611.164V578.412H115.439V607.284L32.7799 559.537H24.0436L0 573.414V578.562Z" fill="#F76342"/>
<path d="M235.507 817.074L150.608 768.058V670.176L175.697 684.65L177.937 680.77L149.563 664.357C149.189 664.133 148.816 664.059 148.443 664.059C148.069 664.059 147.621 664.133 147.323 664.357L118.948 680.77L121.188 684.65L146.277 670.176V768.133L61.3782 817.148V788.276H56.8981V821.028C56.8981 821.848 57.3461 822.594 58.0181 822.967L86.3925 839.381L88.6326 835.501L63.469 820.953L81.987 810.285L83.107 809.688L148.368 772.012L212.808 809.166L233.267 820.953L208.253 835.427L210.493 839.306L238.867 822.967C239.54 822.594 239.988 821.848 239.988 821.028V788.276H235.507V817.074Z" fill="#F76342"/>
<path d="M181.297 718.297H176.817V751.048C176.817 751.869 177.265 752.615 177.937 752.988L206.312 769.401L208.552 765.522L183.537 751.048L240.062 718.446V713.298L181.297 747.169V718.297Z" fill="#F76342"/>
<path d="M239.988 612.731V610.194L238.867 610.791L239.988 612.731Z" fill="#F76342"/>
<path d="M113.348 751.048L88.2593 765.522L90.4993 769.401L118.874 752.988C119.546 752.615 119.994 751.869 119.994 751.048V718.297H115.514V747.169L30.6145 698.153V600.197L55.6287 614.67L57.8688 610.791L29.4944 594.452C29.1211 594.229 28.7477 594.154 28.3744 594.154C28.001 594.154 27.553 594.229 27.2543 594.452L0 610.194V612.731L1.12004 614.67L26.1343 600.197V698.153L0 713.298V718.446L28.3744 702.033L113.348 751.048Z" fill="#F76342"/>
<path d="M175.697 824.46L177.937 820.58L149.563 804.167C149.19 803.943 148.816 803.869 148.443 803.869C148.07 803.869 147.621 803.943 147.323 804.167L118.948 820.58L121.189 824.46L146.203 809.986V839.231H150.683V809.986L175.697 824.46Z" fill="#F76342"/>
<path d="M30.6145 740.081L55.6287 754.555L57.8688 750.675L29.4944 734.262C29.1211 734.038 28.7477 733.964 28.3744 733.964C28.001 733.964 27.553 734.038 27.2543 734.262L0 750.078V752.615L1.12004 754.555L26.209 740.081V838.038L24.1182 839.231H32.7799L30.6891 838.038V740.081H30.6145Z" fill="#F76342"/>
<path d="M239.988 752.615V750.078L238.867 750.675L239.988 752.615Z" fill="#F76342"/>
<path d="M61.3036 956.958V928.086H56.8234V960.837C56.8234 961.658 57.2714 962.404 57.9435 962.777L86.3178 979.19L88.5579 975.311L63.469 960.837L148.368 911.897L214.749 950.169L233.267 960.837L208.253 975.311L210.493 979.19L238.867 962.852C239.54 962.479 239.988 961.733 239.988 960.912V928.086H235.507V956.958L150.608 907.942V839.231H146.128V907.942L61.3036 956.958Z" fill="#F76342"/>
<path d="M181.297 858.106H176.817V890.858C176.817 891.679 177.265 892.425 177.937 892.798L206.312 909.211L208.552 905.331L183.537 890.858L240.062 858.256V853.108L181.297 886.979V858.106Z" fill="#F76342"/>
<path d="M0 858.33L28.3744 841.917L113.274 890.933L88.1846 905.406L90.4247 909.285L118.799 892.872C119.471 892.499 119.919 891.753 119.919 890.933V858.181H115.439V887.053L32.6305 839.306H24.0436L0 853.182V858.33Z" fill="#F76342"/>
<path d="M235.507 1096.84L150.608 1047.83V949.87L175.697 964.344L177.937 960.464L149.563 944.051C149.189 943.828 148.816 943.753 148.443 943.753C148.069 943.753 147.621 943.828 147.323 944.051L118.948 960.464L121.188 964.344L146.277 949.87V1047.83L61.3782 1096.84V1067.97H56.8981V1100.72C56.8981 1101.54 57.3461 1102.29 58.0181 1102.66L86.3925 1119.07L88.6326 1115.2L63.469 1100.72L81.987 1090.05L83.107 1089.46L148.368 1051.78L212.808 1088.93L233.267 1100.72L208.253 1115.2L210.493 1119.07L238.867 1102.74C239.54 1102.36 239.988 1101.62 239.988 1100.8V1068.04H235.507V1096.84Z" fill="#F76342"/>
<path d="M181.297 997.991H176.817V1030.74C176.817 1031.56 177.265 1032.31 177.937 1032.68L206.312 1049.1L208.552 1045.22L183.537 1030.74L240.062 998.14V992.992L181.297 1026.86V997.991Z" fill="#F76342"/>
<path d="M239.988 892.499V889.888L238.867 890.559L239.988 892.499Z" fill="#F76342"/>
<path d="M113.348 1030.74L88.2593 1045.22L90.4993 1049.1L118.874 1032.68C119.546 1032.31 119.994 1031.56 119.994 1030.74V997.991H115.514V1026.86L30.6145 977.922V879.966L55.6287 894.439L57.8688 890.56L29.4944 874.221C29.1211 873.997 28.7477 873.923 28.3744 873.923C28.001 873.923 27.553 873.997 27.2543 874.221L0 889.888V892.425L1.12004 894.364L26.1343 879.891V977.847L0 993.067V998.215L28.3744 981.802L113.348 1030.74Z" fill="#F76342"/>
<path d="M175.697 1104.23L177.937 1100.35L149.563 1083.94C149.19 1083.71 148.816 1083.64 148.443 1083.64C148.07 1083.64 147.621 1083.71 147.323 1083.94L118.948 1100.35L121.189 1104.23L146.203 1089.75V1119H150.683V1089.75L175.697 1104.23Z" fill="#F76342"/>
<path d="M30.6145 1019.85L55.6287 1034.32L57.8688 1030.44L29.4944 1014.03C29.1211 1013.81 28.7477 1013.73 28.3744 1013.73C28.001 1013.73 27.553 1013.81 27.2543 1014.03L0 1029.77V1032.31L1.12004 1034.25L26.1343 1019.78V1117.73L24.0436 1118.93H32.7052L30.6145 1117.73V1019.85V1019.85Z" fill="#F76342"/>
<path d="M239.988 1032.38V1029.77L238.867 1030.44L239.988 1032.38Z" fill="#F76342"/>
<path d="M301.291 117.727V88.8545H296.811V121.606C296.811 122.427 297.259 123.173 297.931 123.546L326.305 139.959L328.545 136.079L303.531 121.606L388.43 72.6652L454.812 110.938L473.33 121.606L448.315 136.079L450.555 139.959L478.93 123.62C479.602 123.247 480.05 122.501 480.05 121.681V88.9291H475.57V117.801L390.67 68.7112V0H386.19V68.7112L301.291 117.727Z" fill="#F76342"/>
<path d="M421.285 18.8751H416.805V51.6266C416.805 52.4473 417.253 53.1933 417.925 53.5664L446.299 69.9795L448.539 66.1L423.525 51.6266L480.05 19.0243V13.8765L421.285 47.7472V18.8751Z" fill="#F76342"/>
<path d="M239.988 19.0243L268.362 2.61117L353.261 51.6266L328.172 66.1L330.412 69.9795L358.787 53.5664C359.459 53.1934 359.907 52.4473 359.907 51.6266V18.8751H355.426V47.7472L272.767 0H264.106L240.062 13.8765V19.0243H239.988Z" fill="#F76342"/>
<path d="M475.57 257.611L390.67 208.596V110.639L415.759 125.113L417.999 121.233L389.625 104.82C389.252 104.596 388.878 104.522 388.505 104.522C388.132 104.522 387.684 104.596 387.385 104.82L359.011 121.233L361.251 125.113L386.34 110.639V208.596L301.44 257.611V228.739H296.96V261.49C296.96 262.311 297.408 263.057 298.08 263.43L326.455 279.843L328.695 275.964L303.681 261.49L322.199 250.822L323.319 250.225L388.58 212.55L453.019 249.703L473.479 261.49L448.465 275.964L450.705 279.843L479.079 263.505C479.751 263.132 480.199 262.386 480.199 261.565V228.813H475.719V257.611H475.57Z" fill="#F76342"/>
<path d="M421.285 158.759H416.805V191.511C416.805 192.332 417.253 193.078 417.925 193.451L446.299 209.864L448.539 205.984L423.525 191.511L480.05 158.909V153.761L421.285 187.632V158.759Z" fill="#F76342"/>
<path d="M479.975 53.1933V50.6568L478.93 51.3282L479.975 53.1933Z" fill="#F76342"/>
<path d="M353.336 191.511L328.247 205.984L330.487 209.864L358.861 193.451C359.533 193.078 359.981 192.332 359.981 191.511V158.759H355.501V187.632L270.602 138.616V40.7343L295.691 55.1331L297.931 51.2536L269.557 34.9151C269.183 34.6913 268.81 34.6167 268.437 34.6167C268.063 34.6167 267.615 34.6913 267.317 34.9151L240.062 50.6568V53.1933L241.182 55.1331L266.197 40.6597V138.616L239.988 153.686V158.834L268.362 142.421L353.336 191.511Z" fill="#F76342"/>
<path d="M415.685 264.997L417.925 261.117L389.55 244.704C389.177 244.48 388.804 244.406 388.43 244.406C388.057 244.406 387.609 244.48 387.31 244.704L358.936 261.117L361.176 264.997L386.19 250.523V279.769H390.67V250.523L415.685 264.997Z" fill="#F76342"/>
<path d="M270.602 180.619L295.616 195.092L297.856 191.213L269.482 174.799C269.109 174.576 268.735 174.501 268.362 174.501C267.989 174.501 267.541 174.576 267.242 174.799L239.988 190.541V193.078L241.108 195.017L266.122 180.544V278.5L264.031 279.694H272.693L270.602 278.5V180.619Z" fill="#F76342"/>
<path d="M479.975 193.078V190.541L478.93 191.138L479.975 193.078Z" fill="#F76342"/>
<path d="M301.291 397.495V368.549H296.811V401.3C296.811 402.121 297.259 402.867 297.931 403.24L326.305 419.653L328.545 415.774L303.531 401.3L388.43 352.359L454.812 390.632L473.33 401.3L448.315 415.774L450.555 419.653L478.93 403.314C479.602 402.941 480.05 402.195 480.05 401.375V368.549H475.57V397.421L390.67 348.405V279.769H386.19V348.48L301.291 397.495Z" fill="#F76342"/>
<path d="M421.285 298.644H416.805V331.395C416.805 332.216 417.253 332.962 417.925 333.335L446.299 349.748L448.539 345.869L423.525 331.395L480.05 298.793V293.645L421.285 327.516V298.644Z" fill="#F76342"/>
<path d="M239.988 298.793L268.362 282.38L353.261 331.395L328.172 345.869L330.412 349.748L358.787 333.335C359.459 332.962 359.907 332.216 359.907 331.395V298.644H355.427V327.516L272.618 279.769H263.956L239.913 293.645V298.793H239.988Z" fill="#F76342"/>
<path d="M475.57 537.38L390.67 488.364V390.408L415.759 404.881L417.999 401.002L389.625 384.589C389.252 384.365 388.878 384.29 388.505 384.29C388.132 384.29 387.684 384.365 387.385 384.589L359.011 401.002L361.251 404.881L386.34 390.408V488.364L301.44 537.38V508.507H296.96V541.259C296.96 542.08 297.408 542.826 298.08 543.199L326.455 559.612L328.695 555.732L303.681 541.259L322.199 530.591L323.319 529.994L388.58 492.318L453.019 529.471L473.479 541.259L448.465 555.732L450.705 559.612L479.079 543.273C479.751 542.9 480.199 542.154 480.199 541.334V508.582H475.719V537.38H475.57Z" fill="#F76342"/>
<path d="M421.285 438.528H416.805V471.28C416.805 472.1 417.253 472.846 417.925 473.219L446.299 489.632L448.539 485.753L423.525 471.28L480.05 438.677V433.529L421.285 467.4V438.528Z" fill="#F76342"/>
<path d="M479.975 332.962V330.425L478.93 331.022L479.975 332.962Z" fill="#F76342"/>
<path d="M353.336 471.28L328.247 485.753L330.487 489.632L358.861 473.219C359.533 472.846 359.981 472.1 359.981 471.28V438.528H355.501V467.4L270.602 418.385V320.428L295.616 334.902L297.856 331.022L269.482 314.684C269.109 314.46 268.735 314.385 268.362 314.385C267.989 314.385 267.541 314.46 267.242 314.684L239.988 330.425V332.962L241.108 334.902L266.122 320.428V418.385L239.913 433.455V438.603L268.287 422.19L353.336 471.28Z" fill="#F76342"/>
<path d="M415.685 544.691L417.925 540.811L389.55 524.398C389.177 524.175 388.804 524.1 388.43 524.1C388.057 524.1 387.609 524.175 387.31 524.398L358.936 540.811L361.176 544.691L386.19 530.218V559.537H390.67V530.292L415.685 544.691Z" fill="#F76342"/>
<path d="M270.602 460.313L295.616 474.786L297.856 470.907L269.482 454.493C269.109 454.27 268.735 454.195 268.362 454.195C267.989 454.195 267.541 454.27 267.242 454.493L239.988 470.235V472.772L241.108 474.711L266.122 460.238V558.194L264.031 559.388H272.693L270.602 558.194V460.313Z" fill="#F76342"/>
<path d="M479.975 472.846V470.31L478.93 470.907L479.975 472.846Z" fill="#F76342"/>
<path d="M301.291 677.189V648.317H296.811V681.069C296.811 681.889 297.259 682.636 297.931 683.009L326.305 699.422L328.545 695.542L303.531 681.069L388.43 632.128L454.812 670.4L473.33 681.069L448.315 695.542L450.555 699.422L478.93 683.083C479.602 682.71 480.05 681.964 480.05 681.143V648.317H475.57V677.189L390.67 628.174V559.537H386.19V628.248L301.291 677.189Z" fill="#F76342"/>
<path d="M421.285 578.412H416.805V611.164C416.805 611.985 417.253 612.731 417.925 613.104L446.299 629.517L448.539 625.637L423.525 611.164L480.05 578.562V573.414L421.285 607.284V578.412Z" fill="#F76342"/>
<path d="M239.988 578.562L268.362 562.148L353.261 611.164L328.172 625.637L330.412 629.517L358.787 613.104C359.459 612.731 359.907 611.985 359.907 611.164V578.412H355.427V607.284L272.618 559.537H263.956L239.913 573.414V578.562H239.988Z" fill="#F76342"/>
<path d="M475.57 817.074L390.67 768.058V670.176L415.759 684.65L417.999 680.77L389.625 664.357C389.252 664.133 388.878 664.059 388.505 664.059C388.132 664.059 387.684 664.133 387.385 664.357L359.011 680.77L361.251 684.65L386.34 670.176V768.133L301.44 817.148V788.276H296.96V821.028C296.96 821.848 297.408 822.594 298.08 822.967L326.455 839.381L328.695 835.501L303.681 821.028L322.199 810.359L323.319 809.762L388.58 772.087L453.019 809.24L473.479 821.028L448.465 835.501L450.705 839.381L479.079 823.042C479.751 822.669 480.199 821.923 480.199 821.102V788.351H475.719V817.074H475.57Z" fill="#F76342"/>
<path d="M421.285 718.297H416.805V751.048C416.805 751.869 417.253 752.615 417.925 752.988L446.299 769.401L448.539 765.522L423.525 751.048L480.05 718.446V713.298L421.285 747.169V718.297Z" fill="#F76342"/>
<path d="M479.975 612.731V610.194L478.93 610.791L479.975 612.731Z" fill="#F76342"/>
<path d="M353.336 751.048L328.247 765.522L330.487 769.401L358.861 752.988C359.533 752.615 359.981 751.869 359.981 751.048V718.297H355.501V747.169L270.602 698.153V600.197L295.616 614.67L297.856 610.791L269.482 594.452C269.109 594.229 268.735 594.154 268.362 594.154C267.989 594.154 267.541 594.229 267.242 594.452L239.988 610.194V612.731L241.108 614.67L266.122 600.197V698.153L239.913 713.224V718.371L268.287 701.958L353.336 751.048Z" fill="#F76342"/>
<path d="M415.685 824.46L417.925 820.58L389.55 804.167C389.177 803.943 388.804 803.869 388.43 803.869C388.057 803.869 387.609 803.943 387.31 804.167L358.936 820.58L361.176 824.46L386.19 809.986V839.231H390.67V809.986L415.685 824.46Z" fill="#F76342"/>
<path d="M270.602 740.081L295.616 754.555L297.856 750.675L269.482 734.262C269.109 734.038 268.735 733.964 268.362 733.964C267.989 733.964 267.541 734.038 267.242 734.262L239.988 750.004V752.54L241.108 754.48L266.122 740.007V837.963L264.031 839.157H272.693L270.602 837.963V740.081Z" fill="#F76342"/>
<path d="M479.975 752.615V750.078L478.93 750.675L479.975 752.615Z" fill="#F76342"/>
<path d="M301.291 956.958V928.086H296.811V960.837C296.811 961.658 297.259 962.404 297.931 962.777L326.305 979.19L328.545 975.311L303.531 960.837L388.43 911.897L454.812 950.169L473.33 960.837L448.315 975.311L450.555 979.19L478.93 962.852C479.602 962.479 480.05 961.733 480.05 960.912V928.086H475.57V956.958L390.67 907.942V839.231H386.19V907.942L301.291 956.958Z" fill="#F76342"/>
<path d="M421.285 858.106H416.805V890.858C416.805 891.679 417.253 892.425 417.925 892.798L446.299 909.211L448.539 905.331L423.525 890.858L480.05 858.256V853.108L421.285 886.979V858.106Z" fill="#F76342"/>
<path d="M239.988 858.33L268.362 841.917L353.261 890.933L328.172 905.406L330.412 909.285L358.787 892.872C359.459 892.499 359.907 891.753 359.907 890.933V858.181H355.427V887.053L272.618 839.306H263.956L239.913 853.182V858.33H239.988Z" fill="#F76342"/>
<path d="M475.57 1096.84L390.67 1047.83V949.87L415.759 964.344L417.999 960.464L389.625 944.051C389.252 943.828 388.878 943.753 388.505 943.753C388.132 943.753 387.684 943.828 387.385 944.051L359.011 960.464L361.251 964.344L386.34 949.87V1047.83L301.44 1096.84V1067.97H296.96V1100.72C296.96 1101.54 297.408 1102.29 298.08 1102.66L326.455 1119.07L328.695 1115.2L303.681 1100.72L322.199 1090.05L323.319 1089.46L388.58 1051.78L453.019 1088.93L473.479 1100.72L448.465 1115.2L450.705 1119.07L479.079 1102.74C479.751 1102.36 480.199 1101.62 480.199 1100.8V1068.04H475.719V1096.84H475.57Z" fill="#F76342"/>
<path d="M421.285 997.991H416.805V1030.74C416.805 1031.56 417.253 1032.31 417.925 1032.68L446.299 1049.1L448.539 1045.22L423.525 1030.74L480.05 998.14V992.992L421.285 1026.86V997.991Z" fill="#F76342"/>
<path d="M479.975 892.499V889.888L478.93 890.559L479.975 892.499Z" fill="#F76342"/>
<path d="M353.336 1030.74L328.247 1045.22L330.487 1049.1L358.861 1032.68C359.533 1032.31 359.981 1031.56 359.981 1030.74V997.991H355.501V1026.86L270.602 977.847V879.891L295.616 894.364L297.856 890.485L269.482 874.146C269.109 873.923 268.735 873.848 268.362 873.848C267.989 873.848 267.541 873.923 267.242 874.146L239.988 889.888V892.425L241.108 894.364L266.122 879.891V977.847L239.913 992.918V998.065L268.287 981.652L353.336 1030.74Z" fill="#F76342"/>
<path d="M415.685 1104.23L417.925 1100.35L389.55 1083.94C389.177 1083.71 388.804 1083.64 388.43 1083.64C388.057 1083.64 387.609 1083.71 387.31 1083.94L358.936 1100.35L361.176 1104.23L386.19 1089.75V1119H390.67V1089.75L415.685 1104.23Z" fill="#F76342"/>
<path d="M270.602 1019.85L295.616 1034.32L297.856 1030.44L269.482 1014.03C269.109 1013.81 268.735 1013.73 268.362 1013.73C267.989 1013.73 267.541 1013.81 267.242 1014.03L239.988 1029.77V1032.31L241.108 1034.25L266.122 1019.78V1117.73L264.031 1118.93H272.693L270.602 1117.73V1019.85Z" fill="#F76342"/>
<path d="M479.975 1032.38V1029.77L478.93 1030.44L479.975 1032.38Z" fill="#F76342"/>
<path d="M541.279 117.727V88.8545H536.799V121.606C536.799 122.427 537.247 123.173 537.919 123.546L566.293 139.959L568.533 136.079L543.519 121.606L628.418 72.6652L694.799 110.938L713.317 121.606L688.303 136.079L690.543 139.959L718.917 123.62C719.589 123.247 720.037 122.501 720.037 121.681V88.9291H715.557V117.801L630.658 68.7112V0H626.178V68.7112L541.279 117.727Z" fill="#F76342"/>
<path d="M661.273 18.8751H656.792V51.6266C656.792 52.4473 657.24 53.1933 657.912 53.5664L686.287 69.9795L688.527 66.1L663.513 51.6266L720.037 19.0243V13.8765L661.273 47.7472V18.8751Z" fill="#F76342"/>
<path d="M479.975 19.0243L508.349 2.61117L593.249 51.6266L568.234 66.1L570.474 69.9795L598.849 53.5664C599.521 53.1934 599.969 52.4473 599.969 51.6266V18.8751H595.489V47.7472L512.755 0H504.093L480.05 13.8765V19.0243H479.975Z" fill="#F76342"/>
<path d="M715.557 257.611L630.658 208.596V110.639L655.747 125.113L657.987 121.233L629.613 104.82C629.239 104.596 628.866 104.522 628.493 104.522C628.119 104.522 627.671 104.596 627.373 104.82L598.998 121.233L601.238 125.113L626.327 110.639V208.596L541.428 257.611V228.739H536.948V261.49C536.948 262.311 537.396 263.057 538.068 263.43L566.442 279.843L568.682 275.964L543.668 261.49L562.186 250.822L563.306 250.225L628.567 212.55L693.007 249.703L713.466 261.49L688.452 275.964L690.692 279.843L719.067 263.505C719.739 263.132 720.187 262.386 720.187 261.565V228.813H715.707V257.611H715.557Z" fill="#F76342"/>
<path d="M661.273 158.759H656.792V191.511C656.792 192.332 657.24 193.078 657.912 193.451L686.287 209.864L688.527 205.984L663.513 191.511L720.037 158.909V153.761L661.273 187.632V158.759Z" fill="#F76342"/>
<path d="M720.037 53.1933V50.6568L718.917 51.3282L720.037 53.1933Z" fill="#F76342"/>
<path d="M593.323 191.511L568.234 205.984L570.474 209.864L598.849 193.451C599.521 193.078 599.969 192.332 599.969 191.511V158.759H595.489V187.632L510.59 138.616V40.7343L535.604 55.2077L537.844 51.3282L509.47 34.9897C509.096 34.7659 508.723 34.6913 508.349 34.6913C507.976 34.6913 507.528 34.7659 507.229 34.9897L479.975 50.7314V53.268L481.095 55.2077L506.109 40.7343V138.691L479.9 153.761V158.909L508.275 142.495L593.323 191.511Z" fill="#F76342"/>
<path d="M655.672 264.997L657.912 261.117L629.538 244.704C629.165 244.48 628.791 244.406 628.418 244.406C628.045 244.406 627.597 244.48 627.298 244.704L598.924 261.117L601.164 264.997L626.178 250.523V279.769H630.658V250.523L655.672 264.997Z" fill="#F76342"/>
<path d="M510.664 180.619L535.678 195.092L537.919 191.213L509.544 174.799C509.171 174.576 508.798 174.501 508.424 174.501C508.051 174.501 507.603 174.576 507.304 174.799L480.05 190.541V193.078L481.17 195.017L506.184 180.544V278.5L504.093 279.694H512.755L510.664 278.5V180.619V180.619Z" fill="#F76342"/>
<path d="M720.037 193.078V190.541L718.917 191.138L720.037 193.078Z" fill="#F76342"/>
<path d="M541.279 397.495V368.549H536.799V401.3C536.799 402.121 537.247 402.867 537.919 403.24L566.293 419.653L568.533 415.774L543.519 401.3L628.418 352.359L694.799 390.632L713.317 401.3L688.303 415.774L690.543 419.653L718.917 403.314C719.589 402.941 720.037 402.195 720.037 401.375V368.549H715.557V397.421L630.658 348.405V279.769H626.178V348.48L541.279 397.495Z" fill="#F76342"/>
<path d="M661.273 298.644H656.792V331.395C656.792 332.216 657.24 332.962 657.912 333.335L686.287 349.748L688.527 345.869L663.513 331.395L720.037 298.793V293.645L661.273 327.516V298.644Z" fill="#F76342"/>
<path d="M479.975 298.793L508.349 282.38L593.249 331.395L568.234 345.869L570.474 349.748L598.849 333.335C599.521 332.962 599.969 332.216 599.969 331.395V298.644H595.489V327.516L512.68 279.769H504.019L479.975 293.645V298.793Z" fill="#F76342"/>
<path d="M715.557 537.38L630.658 488.364V390.408L655.747 404.881L657.987 401.002L629.613 384.589C629.239 384.365 628.866 384.29 628.493 384.29C628.119 384.29 627.671 384.365 627.373 384.589L598.998 401.002L601.238 404.881L626.327 390.408V488.364L541.428 537.38V508.507H536.948V541.259C536.948 542.08 537.396 542.826 538.068 543.199L566.442 559.612L568.682 555.732L543.668 541.259L562.186 530.591L563.306 529.994L628.567 492.318L693.007 529.471L713.466 541.259L688.452 555.732L690.692 559.612L719.067 543.273C719.739 542.9 720.187 542.154 720.187 541.334V508.582H715.707V537.38H715.557Z" fill="#F76342"/>
<path d="M661.273 438.528H656.792V471.28C656.792 472.1 657.24 472.846 657.912 473.219L686.287 489.632L688.527 485.753L663.513 471.28L720.037 438.677V433.529L661.273 467.4V438.528Z" fill="#F76342"/>
<path d="M720.037 332.962V330.425L718.917 331.022L720.037 332.962Z" fill="#F76342"/>
<path d="M593.323 471.28L568.234 485.753L570.474 489.632L598.849 473.219C599.521 472.846 599.969 472.1 599.969 471.28V438.528H595.489V467.4L510.59 418.385V320.428L535.604 334.902L537.844 331.022L509.47 314.684C509.096 314.46 508.723 314.385 508.349 314.385C507.976 314.385 507.528 314.46 507.229 314.684L479.975 330.425V332.962L481.095 334.902L506.109 320.428V418.385L479.9 433.455V438.603L508.275 422.19L593.323 471.28Z" fill="#F76342"/>
<path d="M655.672 544.691L657.912 540.811L629.538 524.398C629.165 524.175 628.791 524.1 628.418 524.1C628.045 524.1 627.597 524.175 627.298 524.398L598.924 540.811L601.164 544.691L626.178 530.218V559.537H630.658V530.292L655.672 544.691Z" fill="#F76342"/>
<path d="M510.664 460.313L535.678 474.786L537.919 470.907L509.544 454.493C509.171 454.27 508.798 454.195 508.424 454.195C508.051 454.195 507.603 454.27 507.304 454.493L480.05 470.235V472.772L481.17 474.711L506.184 460.238V558.194L504.093 559.388H512.755L510.664 558.194V460.313V460.313Z" fill="#F76342"/>
<path d="M720.037 472.846V470.31L718.917 470.907L720.037 472.846Z" fill="#F76342"/>
<path d="M541.279 677.189V648.317H536.799V681.069C536.799 681.889 537.247 682.636 537.919 683.009L566.293 699.422L568.533 695.542L543.519 681.069L628.418 632.128L694.799 670.4L713.317 681.069L688.303 695.542L690.543 699.422L718.917 683.083C719.589 682.71 720.037 681.964 720.037 681.143V648.317H715.557V677.189L630.658 628.174V559.537H626.178V628.248L541.279 677.189Z" fill="#F76342"/>
<path d="M661.273 578.412H656.792V611.164C656.792 611.985 657.24 612.731 657.912 613.104L686.287 629.517L688.527 625.637L663.513 611.164L720.037 578.562V573.414L661.273 607.284V578.412Z" fill="#F76342"/>
<path d="M479.975 578.562L508.349 562.148L593.249 611.164L568.234 625.563L570.474 629.442L598.849 613.029C599.521 612.656 599.969 611.91 599.969 611.089V578.338H595.489V607.284L512.68 559.537H504.019L479.975 573.414V578.562Z" fill="#F76342"/>
<path d="M715.557 817.074L630.658 768.058V670.176L655.747 684.65L657.987 680.77L629.613 664.357C629.239 664.133 628.866 664.059 628.493 664.059C628.119 664.059 627.671 664.133 627.373 664.357L598.998 680.77L601.238 684.65L626.327 670.176V768.133L541.428 817.148V788.276H536.948V821.028C536.948 821.848 537.396 822.594 538.068 822.967L566.442 839.381L568.682 835.501L543.668 821.028L562.186 810.359L563.306 809.762L628.567 772.087L693.007 809.24L713.466 821.028L688.452 835.501L690.692 839.381L719.067 823.042C719.739 822.669 720.187 821.923 720.187 821.102V788.351H715.707V817.074H715.557Z" fill="#F76342"/>
<path d="M661.273 718.297H656.792V751.048C656.792 751.869 657.24 752.615 657.912 752.988L686.287 769.401L688.527 765.522L663.513 751.048L720.037 718.446V713.298L661.273 747.169V718.297Z" fill="#F76342"/>
<path d="M720.037 612.731V610.194L718.917 610.791L720.037 612.731Z" fill="#F76342"/>
<path d="M593.323 751.048L568.234 765.447L570.474 769.326L598.849 752.913C599.521 752.54 599.969 751.794 599.969 750.974V718.222H595.489V747.094L510.59 698.079V600.197L535.604 614.67L537.844 610.791L509.47 594.452C509.096 594.229 508.723 594.154 508.349 594.154C507.976 594.154 507.528 594.229 507.229 594.452L479.975 610.194V612.731L481.095 614.67L506.109 600.197V698.153L479.9 713.224V718.371L508.275 701.958L593.323 751.048Z" fill="#F76342"/>
<path d="M655.672 824.46L657.912 820.58L629.538 804.167C629.165 803.943 628.791 803.869 628.418 803.869C628.045 803.869 627.597 803.943 627.298 804.167L598.924 820.58L601.164 824.46L626.178 809.986V839.231H630.658V809.986L655.672 824.46Z" fill="#F76342"/>
<path d="M510.664 740.081L535.678 754.555L537.919 750.675L509.544 734.262C509.171 734.038 508.798 733.964 508.424 733.964C508.051 733.964 507.603 734.038 507.304 734.262L480.05 750.004V752.54L481.17 754.48L506.184 740.007V837.963L504.093 839.157H512.755L510.664 837.963V740.081V740.081Z" fill="#F76342"/>
<path d="M720.037 752.615V750.078L718.917 750.675L720.037 752.615Z" fill="#F76342"/>
<path d="M541.279 956.958V928.086H536.799V960.837C536.799 961.658 537.247 962.404 537.919 962.777L566.293 979.19L568.533 975.311L543.519 960.837L628.418 911.897L694.799 950.169L713.317 960.837L688.303 975.311L690.543 979.19L718.917 962.852C719.589 962.479 720.037 961.733 720.037 960.912V928.086H715.557V956.958L630.658 907.942V839.231H626.178V907.942L541.279 956.958Z" fill="#F76342"/>
<path d="M661.273 858.106H656.792V890.858C656.792 891.679 657.24 892.425 657.912 892.798L686.287 909.211L688.527 905.331L663.513 890.858L720.037 858.256V853.108L661.273 886.979V858.106Z" fill="#F76342"/>
<path d="M479.975 858.33L508.349 841.917L593.249 890.933L568.16 905.406L570.4 909.285L598.774 892.872C599.446 892.499 599.894 891.753 599.894 890.933V858.181H595.414V887.053L512.606 839.306H503.944L479.9 853.182V858.33H479.975Z" fill="#F76342"/>
<path d="M715.557 1096.84L630.658 1047.83V949.87L655.747 964.344L657.987 960.464L629.613 944.051C629.239 943.828 628.866 943.753 628.493 943.753C628.119 943.753 627.671 943.828 627.373 944.051L598.998 960.464L601.238 964.344L626.327 949.87V1047.83L541.428 1096.84V1067.97H536.948V1100.72C536.948 1101.54 537.396 1102.29 538.068 1102.66L566.442 1119.07L568.682 1115.2L543.668 1100.72L562.186 1090.05L563.306 1089.46L628.567 1051.78L693.007 1088.93L713.466 1100.72L688.452 1115.2L690.692 1119.07L719.067 1102.74C719.739 1102.36 720.187 1101.62 720.187 1100.8V1068.04H715.707V1096.84H715.557Z" fill="#F76342"/>
<path d="M661.273 997.991H656.792V1030.74C656.792 1031.56 657.24 1032.31 657.912 1032.68L686.287 1049.1L688.527 1045.22L663.513 1030.74L720.037 998.14V992.992L661.273 1026.86V997.991Z" fill="#F76342"/>
<path d="M720.037 892.499V889.888L718.917 890.559L720.037 892.499Z" fill="#F76342"/>
<path d="M593.323 1030.74L568.234 1045.22L570.474 1049.1L598.849 1032.68C599.521 1032.31 599.969 1031.56 599.969 1030.74V997.991H595.489V1026.86L510.59 977.847V879.891L535.604 894.364L537.844 890.485L509.47 874.146C509.096 873.923 508.723 873.848 508.349 873.848C507.976 873.848 507.528 873.923 507.229 874.146L479.975 889.888V892.425L481.095 894.364L506.109 879.891V977.847L479.9 992.918V998.065L508.275 981.652L593.323 1030.74Z" fill="#F76342"/>
<path d="M655.672 1104.23L657.912 1100.35L629.538 1083.94C629.165 1083.71 628.791 1083.64 628.418 1083.64C628.045 1083.64 627.597 1083.71 627.298 1083.94L598.924 1100.35L601.164 1104.23L626.178 1089.75V1119H630.658V1089.75L655.672 1104.23Z" fill="#F76342"/>
<path d="M510.664 1019.85L535.678 1034.32L537.919 1030.44L509.544 1014.03C509.171 1013.81 508.798 1013.73 508.424 1013.73C508.051 1013.73 507.603 1013.81 507.304 1014.03L480.05 1029.77V1032.31L481.17 1034.25L506.184 1019.78V1117.73L504.093 1118.93H512.755L510.664 1117.73V1019.85V1019.85Z" fill="#F76342"/>
<path d="M720.037 1032.38V1029.77L718.917 1030.44L720.037 1032.38Z" fill="#F76342"/>
<path d="M781.266 117.727V88.8545H776.786V121.606C776.786 122.427 777.234 123.173 777.906 123.546L806.281 139.959L808.521 136.079L783.506 121.606L868.405 72.5906L934.787 110.863L953.305 121.532L928.29 136.005L930.53 139.884L958.905 123.546C959.577 123.173 960.025 122.427 960.025 121.606V88.8545H955.545V117.727L870.646 68.7112V0H866.165V68.7112L781.266 117.727Z" fill="#F76342"/>
<path d="M901.26 18.8751H896.78V51.6266C896.78 52.4473 897.228 53.1933 897.9 53.5664L926.274 69.9795L928.514 66.1L903.5 51.6266L960.025 19.0243V13.8765L901.26 47.7472V18.8751Z" fill="#F76342"/>
<path d="M720.037 19.0243L748.412 2.61117L833.311 51.6266L808.222 66.1L810.462 69.9795L838.836 53.5664C839.508 53.1934 839.956 52.4473 839.956 51.6266V18.8751H835.476V47.7472L752.743 0H744.081L720.037 13.8765V19.0243Z" fill="#F76342"/>
<path d="M955.545 257.611L870.646 208.596V110.639L895.734 125.113L897.975 121.233L869.6 104.82C869.227 104.596 868.853 104.522 868.48 104.522C868.107 104.522 867.659 104.596 867.36 104.82L838.986 121.233L841.226 125.113L866.315 110.639V208.596L781.416 257.611V228.739H776.935V261.49C776.935 262.311 777.383 263.057 778.055 263.43L806.43 279.843L808.67 275.964L783.656 261.49L802.174 250.822L803.294 250.225L868.555 212.55L932.995 249.703L953.454 261.49L928.44 275.964L930.68 279.843L959.054 263.505C959.726 263.132 960.174 262.386 960.174 261.565V228.813H955.694V257.611H955.545Z" fill="#F76342"/>
<path d="M901.26 158.759H896.78V191.511C896.78 192.332 897.228 193.078 897.9 193.451L926.274 209.864L928.514 205.984L903.5 191.511L960.025 158.909V153.761L901.26 187.632V158.759Z" fill="#F76342"/>
<path d="M960.025 53.1933V50.6568L958.905 51.3282L960.025 53.1933Z" fill="#F76342"/>
<path d="M833.311 191.511L808.222 205.984L810.462 209.864L838.836 193.451C839.508 193.078 839.956 192.332 839.956 191.511V158.759H835.476V187.632L750.577 138.616V40.7343L775.591 55.2077L777.831 51.3282L749.457 34.9897C749.084 34.7659 748.71 34.6913 748.337 34.6913C747.964 34.6913 747.516 34.7659 747.217 34.9897L719.963 50.7314V53.268L721.083 55.2077L746.097 40.7343V138.691L719.888 153.761V158.909L748.262 142.495L833.311 191.511Z" fill="#F76342"/>
<path d="M895.66 264.997L897.9 261.117L869.525 244.704C869.152 244.48 868.779 244.406 868.405 244.406C868.032 244.406 867.584 244.48 867.285 244.704L838.911 261.117L841.151 264.997L866.165 250.523V279.769H870.646V250.523L895.66 264.997Z" fill="#F76342"/>
<path d="M750.652 180.619L775.666 195.092L777.906 191.213L749.532 174.799C749.158 174.576 748.785 174.501 748.412 174.501C748.038 174.501 747.59 174.576 747.292 174.799L720.037 190.541V193.078L721.157 195.017L746.172 180.544V278.5L744.081 279.694H752.743L750.652 278.5V180.619V180.619Z" fill="#F76342"/>
<path d="M960.025 193.078V190.541L958.905 191.138L960.025 193.078Z" fill="#F76342"/>
<path d="M781.266 397.495V368.549H776.786V401.3C776.786 402.121 777.234 402.867 777.906 403.24L806.281 419.653L808.521 415.774L783.506 401.3L868.405 352.359L934.787 390.632L953.305 401.3L928.29 415.774L930.53 419.653L958.905 403.314C959.577 402.941 960.025 402.195 960.025 401.375V368.549H955.545V397.421L870.646 348.48V279.769H866.165V348.48L781.266 397.495Z" fill="#F76342"/>
<path d="M901.26 298.644H896.78V331.395C896.78 332.216 897.228 332.962 897.9 333.335L926.274 349.748L928.514 345.869L903.5 331.395L960.025 298.793V293.645L901.26 327.516V298.644Z" fill="#F76342"/>
<path d="M720.037 298.793L748.412 282.38L833.311 331.395L808.222 345.869L810.462 349.748L838.836 333.335C839.508 332.962 839.956 332.216 839.956 331.395V298.644H835.476V327.516L752.668 279.769H744.006L719.963 293.645V298.793H720.037Z" fill="#F76342"/>
<path d="M955.545 537.38L870.646 488.364V390.408L895.734 404.881L897.975 401.002L869.6 384.589C869.227 384.365 868.853 384.29 868.48 384.29C868.107 384.29 867.659 384.365 867.36 384.589L838.986 401.002L841.226 404.881L866.315 390.408V488.364L781.416 537.38V508.507H776.935V541.259C776.935 542.08 777.383 542.826 778.055 543.199L806.43 559.612L808.67 555.732L783.656 541.259L802.174 530.591L803.294 529.994L868.555 492.318L932.995 529.471L953.454 541.259L928.44 555.732L930.68 559.612L959.054 543.273C959.726 542.9 960.174 542.154 960.174 541.334V508.582H955.694V537.38H955.545Z" fill="#F76342"/>
<path d="M901.26 438.528H896.78V471.28C896.78 472.1 897.228 472.846 897.9 473.219L926.274 489.632L928.514 485.753L903.5 471.28L960.025 438.677V433.529L901.26 467.4V438.528Z" fill="#F76342"/>
<path d="M960.025 332.962V330.425L958.905 331.022L960.025 332.962Z" fill="#F76342"/>
<path d="M833.311 471.28L808.222 485.753L810.462 489.632L838.836 473.219C839.508 472.846 839.956 472.1 839.956 471.28V438.528H835.476V467.4L750.577 418.385V320.428L775.591 334.902L777.831 331.022L749.457 314.684C749.084 314.46 748.71 314.385 748.337 314.385C747.964 314.385 747.516 314.46 747.217 314.684L719.963 330.425V332.962L721.083 334.902L746.097 320.428V418.385L719.888 433.455V438.603L748.262 422.19L833.311 471.28Z" fill="#F76342"/>
<path d="M895.66 544.691L897.9 540.811L869.525 524.398C869.152 524.175 868.779 524.1 868.405 524.1C868.032 524.1 867.584 524.175 867.285 524.398L838.911 540.811L841.151 544.691L866.165 530.218V559.537H870.646V530.292L895.66 544.691Z" fill="#F76342"/>
<path d="M750.652 460.313L775.666 474.786L777.906 470.907L749.532 454.493C749.158 454.27 748.785 454.195 748.412 454.195C748.038 454.195 747.59 454.27 747.292 454.493L720.037 470.235V472.772L721.157 474.711L746.172 460.238V558.194L744.081 559.388H752.743L750.652 558.194V460.313V460.313Z" fill="#F76342"/>
<path d="M960.025 472.846V470.31L958.905 470.907L960.025 472.846Z" fill="#F76342"/>
<path d="M781.266 677.189V648.317H776.786V681.069C776.786 681.889 777.234 682.636 777.906 683.009L806.281 699.422L808.521 695.542L783.506 681.069L868.405 632.128L934.787 670.4L953.305 681.069L928.29 695.542L930.53 699.422L958.905 683.083C959.577 682.71 960.025 681.964 960.025 681.143V648.317H955.545V677.189L870.646 628.248V559.537H866.165V628.248L781.266 677.189Z" fill="#F76342"/>
<path d="M901.26 578.412H896.78V611.164C896.78 611.985 897.228 612.731 897.9 613.104L926.274 629.517L928.514 625.637L903.5 611.164L960.025 578.562V573.414L901.26 607.284V578.412Z" fill="#F76342"/>
<path d="M720.037 578.562L748.412 562.148L833.311 611.164L808.222 625.637L810.462 629.517L838.836 613.104C839.508 612.731 839.956 611.985 839.956 611.164V578.412H835.476V607.284L752.668 559.537H744.006L719.963 573.414V578.562H720.037Z" fill="#F76342"/>
<path d="M955.545 817.074L870.646 768.058V670.176L895.734 684.65L897.975 680.77L869.6 664.357C869.227 664.133 868.853 664.059 868.48 664.059C868.107 664.059 867.659 664.133 867.36 664.357L838.986 680.77L841.226 684.65L866.315 670.176V768.133L781.416 817.148V788.276H776.935V821.028C776.935 821.848 777.383 822.594 778.055 822.967L806.43 839.381L808.67 835.501L783.656 821.028L802.174 810.359L803.294 809.762L868.555 772.087L932.995 809.24L953.454 821.028L928.44 835.501L930.68 839.381L959.054 823.042C959.726 822.669 960.174 821.923 960.174 821.102V788.351H955.694V817.074H955.545Z" fill="#F76342"/>
<path d="M901.26 718.297H896.78V751.048C896.78 751.869 897.228 752.615 897.9 752.988L926.274 769.401L928.514 765.522L903.5 751.048L960.025 718.446V713.298L901.26 747.169V718.297Z" fill="#F76342"/>
<path d="M960.025 612.731V610.194L958.905 610.791L960.025 612.731Z" fill="#F76342"/>
<path d="M833.311 751.048L808.222 765.522L810.462 769.401L838.836 752.988C839.508 752.615 839.956 751.869 839.956 751.048V718.297H835.476V747.169L750.577 698.153V600.197L775.591 614.67L777.831 610.791L749.457 594.452C749.084 594.229 748.71 594.154 748.337 594.154C747.964 594.154 747.516 594.229 747.217 594.452L719.963 610.194V612.731L721.083 614.67L746.097 600.197V698.153L719.888 713.224V718.371L748.262 701.958L833.311 751.048Z" fill="#F76342"/>
<path d="M895.66 824.46L897.9 820.58L869.525 804.167C869.152 803.943 868.779 803.869 868.405 803.869C868.032 803.869 867.584 803.943 867.285 804.167L838.911 820.58L841.151 824.46L866.165 809.986V839.231H870.646V809.986L895.66 824.46Z" fill="#F76342"/>
<path d="M750.652 740.081L775.666 754.555L777.906 750.675L749.532 734.262C749.158 734.038 748.785 733.964 748.412 733.964C748.038 733.964 747.59 734.038 747.292 734.262L720.037 750.004V752.54L721.157 754.48L746.172 740.007V837.963L744.081 839.157H752.743L750.652 837.963V740.081V740.081Z" fill="#F76342"/>
<path d="M960.025 752.615V750.078L958.905 750.675L960.025 752.615Z" fill="#F76342"/>
<path d="M781.266 956.958V928.086H776.786V960.837C776.786 961.658 777.234 962.404 777.906 962.777L806.281 979.19L808.521 975.311L783.506 960.837L868.405 911.897L934.787 950.169L953.305 960.837L928.29 975.311L930.53 979.19L958.905 962.852C959.577 962.479 960.025 961.733 960.025 960.912V928.086H955.545V956.958L870.646 907.942V839.231H866.165V907.942L781.266 956.958Z" fill="#F76342"/>
<path d="M901.26 858.106H896.78V890.858C896.78 891.679 897.228 892.425 897.9 892.798L926.274 909.211L928.514 905.331L903.5 890.858L960.025 858.256V853.108L901.26 887.053V858.106Z" fill="#F76342"/>
<path d="M720.037 858.33L748.412 841.917L833.311 890.933L808.222 905.406L810.462 909.285L838.836 892.872C839.508 892.499 839.956 891.753 839.956 890.933V858.181H835.476V887.053L752.668 839.306H744.006L719.963 853.182V858.33H720.037Z" fill="#F76342"/>
<path d="M955.545 1096.84L870.646 1047.83V949.87L895.734 964.344L897.975 960.464L869.6 944.051C869.227 943.828 868.853 943.753 868.48 943.753C868.107 943.753 867.659 943.828 867.36 944.051L838.986 960.464L841.226 964.344L866.315 949.87V1047.83L781.416 1096.84V1067.97H776.935V1100.72C776.935 1101.54 777.383 1102.29 778.055 1102.66L806.43 1119.07L808.67 1115.2L783.656 1100.72L802.174 1090.05L803.294 1089.46L868.555 1051.78L932.995 1088.93L953.454 1100.72L928.44 1115.2L930.68 1119.07L959.054 1102.74C959.726 1102.36 960.174 1101.62 960.174 1100.8V1068.04H955.694V1096.84H955.545Z" fill="#F76342"/>
<path d="M901.26 997.991H896.78V1030.74C896.78 1031.56 897.228 1032.31 897.9 1032.68L926.274 1049.1L928.514 1045.22L903.5 1030.74L960.025 998.14V992.992L901.26 1026.86V997.991Z" fill="#F76342"/>
<path d="M960.025 892.499V889.888L958.905 890.559L960.025 892.499Z" fill="#F76342"/>
<path d="M833.311 1030.74L808.222 1045.22L810.462 1049.1L838.836 1032.68C839.508 1032.31 839.956 1031.56 839.956 1030.74V997.991H835.476V1026.86L750.577 977.847V879.891L775.591 894.364L777.831 890.485L749.457 874.146C749.084 873.923 748.71 873.848 748.337 873.848C747.964 873.848 747.516 873.923 747.217 874.146L719.963 889.888V892.425L721.083 894.364L746.097 879.891V977.847L719.888 992.918V998.065L748.262 981.652L833.311 1030.74Z" fill="#F76342"/>
<path d="M895.66 1104.23L897.9 1100.35L869.525 1083.94C869.152 1083.71 868.779 1083.64 868.405 1083.64C868.032 1083.64 867.584 1083.71 867.285 1083.94L838.911 1100.35L841.151 1104.23L866.165 1089.75V1119H870.646V1089.75L895.66 1104.23Z" fill="#F76342"/>
<path d="M750.652 1019.85L775.666 1034.32L777.906 1030.44L749.532 1014.03C749.158 1013.81 748.785 1013.73 748.412 1013.73C748.038 1013.73 747.59 1013.81 747.292 1014.03L720.037 1029.77V1032.31L721.157 1034.25L746.172 1019.78V1117.73L744.081 1118.93H752.743L750.652 1117.73V1019.85V1019.85Z" fill="#F76342"/>
<path d="M960.025 1032.38V1029.77L958.905 1030.44L960.025 1032.38Z" fill="#F76342"/>
<path d="M1021.25 117.727V88.8545H1016.77V121.606C1016.77 122.427 1017.22 123.173 1017.89 123.546L1046.27 139.959L1048.51 136.079L1023.49 121.606L1108.39 72.6652L1174.77 110.938L1193.29 121.606L1168.28 136.079L1170.52 139.959L1198.89 123.62C1199.56 123.247 1200.01 122.501 1200.01 121.681V88.9291H1195.53V117.801L1110.63 68.7858V0H1106.15V68.7112L1021.25 117.727Z" fill="#F76342"/>
<path d="M1141.25 18.8751H1136.77V51.6266C1136.77 52.4473 1137.22 53.1933 1137.89 53.5664L1166.26 69.9795L1168.5 66.1L1143.49 51.6266L1200.01 19.0243V13.8765L1141.25 47.7472V18.8751Z" fill="#F76342"/>
<path d="M960.025 19.0243L988.399 2.61117L1073.3 51.6266L1048.21 66.1L1050.45 69.9795L1078.82 53.5664C1079.5 53.1934 1079.94 52.4473 1079.94 51.6266V18.8751H1075.46V47.7472L992.73 0H984.068L960.025 13.8765V19.0243Z" fill="#F76342"/>
<path d="M1195.53 257.611L1110.63 208.596V110.639L1135.72 125.113L1137.96 121.233L1109.59 104.82C1109.21 104.596 1108.84 104.522 1108.47 104.522C1108.09 104.522 1107.65 104.596 1107.35 104.82L1078.97 121.233L1081.21 125.113L1106.3 110.639V208.596L1021.4 257.611V228.739H1016.92V261.49C1016.92 262.311 1017.37 263.057 1018.04 263.43L1046.42 279.843L1048.66 275.964L1023.64 261.49L1042.16 250.822L1043.28 250.225L1108.54 212.55L1172.98 249.703L1193.44 261.49L1168.43 275.964L1170.67 279.843L1199.04 263.505C1199.71 263.132 1200.16 262.386 1200.16 261.565V228.813H1195.68V257.611H1195.53Z" fill="#F76342"/>
<path d="M1141.25 158.759H1136.77V191.511C1136.77 192.332 1137.22 193.078 1137.89 193.451L1166.26 209.864L1168.5 205.984L1143.49 191.511L1200.01 158.909V153.761L1141.25 187.632V158.759Z" fill="#F76342"/>
<path d="M1200.01 53.1933V50.6568L1198.89 51.3282L1200.01 53.1933Z" fill="#F76342"/>
<path d="M1073.3 191.511L1048.21 205.984L1050.45 209.864L1078.82 193.451C1079.5 193.078 1079.94 192.332 1079.94 191.511V158.759H1075.46V187.632L990.565 138.616V40.7343L1015.58 55.2077L1017.82 51.3282L989.445 34.9897C989.071 34.7659 988.698 34.6913 988.325 34.6913C987.951 34.6913 987.503 34.7659 987.205 34.9897L959.95 50.7314V53.268L961.07 55.2077L986.084 40.7343V138.691L959.875 153.761V158.909L988.25 142.495L1073.3 191.511Z" fill="#F76342"/>
<path d="M1135.72 264.997L1137.96 261.117L1109.59 244.704C1109.21 244.48 1108.84 244.406 1108.47 244.406C1108.09 244.406 1107.65 244.48 1107.35 244.704L1078.97 261.117L1081.21 264.997L1106.23 250.523V279.769H1110.71V250.523L1135.72 264.997Z" fill="#F76342"/>
<path d="M990.639 180.619L1015.65 195.092L1017.89 191.213L989.519 174.799C989.146 174.576 988.773 174.501 988.399 174.501C988.026 174.501 987.578 174.576 987.279 174.799L960.025 190.541V193.078L961.145 195.017L986.159 180.544V278.5L984.068 279.694H992.73L990.639 278.5V180.619Z" fill="#F76342"/>
<path d="M1200.01 193.078V190.541L1198.89 191.138L1200.01 193.078Z" fill="#F76342"/>
<path d="M1021.25 397.495V368.549H1016.77V401.3C1016.77 402.121 1017.22 402.867 1017.89 403.24L1046.27 419.653L1048.51 415.774L1023.49 401.3L1108.39 352.359L1174.77 390.632L1193.29 401.3L1168.28 415.774L1170.52 419.653L1198.89 403.314C1199.56 402.941 1200.01 402.195 1200.01 401.375V368.549H1195.53V397.421L1110.63 348.405V279.769H1106.15V348.48L1021.25 397.495Z" fill="#F76342"/>
<path d="M1141.25 298.644H1136.77V331.395C1136.77 332.216 1137.22 332.962 1137.89 333.335L1166.26 349.748L1168.5 345.869L1143.49 331.395L1200.01 298.793V293.645L1141.25 327.516V298.644Z" fill="#F76342"/>
<path d="M960.025 298.793L988.399 282.38L1073.3 331.395L1048.21 345.869L1050.45 349.748L1078.82 333.335C1079.5 332.962 1079.94 332.216 1079.94 331.395V298.644H1075.46V327.516L992.655 279.769H983.994L959.95 293.645V298.793H960.025Z" fill="#F76342"/>
<path d="M1195.53 537.38L1110.63 488.364V390.408L1135.72 404.881L1137.96 401.002L1109.59 384.589C1109.21 384.365 1108.84 384.29 1108.47 384.29C1108.09 384.29 1107.65 384.365 1107.35 384.589L1078.97 401.002L1081.21 404.881L1106.3 390.408V488.364L1021.4 537.38V508.507H1016.92V541.259C1016.92 542.08 1017.37 542.826 1018.04 543.199L1046.42 559.612L1048.66 555.732L1023.64 541.259L1042.16 530.591L1043.28 529.994L1108.54 492.318L1172.98 529.471L1193.44 541.259L1168.43 555.732L1170.67 559.612L1199.04 543.273C1199.71 542.9 1200.16 542.154 1200.16 541.334V508.582H1195.68V537.38H1195.53Z" fill="#F76342"/>
<path d="M1141.25 438.528H1136.77V471.28C1136.77 472.1 1137.22 472.846 1137.89 473.219L1166.26 489.632L1168.5 485.753L1143.49 471.28L1200.01 438.677V433.529L1141.25 467.4V438.528Z" fill="#F76342"/>
<path d="M1200.01 332.962V330.425L1198.89 331.022L1200.01 332.962Z" fill="#F76342"/>
<path d="M1073.3 471.28L1048.21 485.753L1050.45 489.632L1078.82 473.219C1079.5 472.846 1079.94 472.1 1079.94 471.28V438.528H1075.46V467.4L990.565 418.385V320.428L1015.58 334.902L1017.82 331.022L989.445 314.684C989.071 314.46 988.698 314.385 988.325 314.385C987.951 314.385 987.503 314.46 987.205 314.684L959.95 330.425V332.962L961.07 334.902L986.084 320.428V418.385L959.875 433.455V438.603L988.25 422.19L1073.3 471.28Z" fill="#F76342"/>
<path d="M1135.72 544.691L1137.96 540.811L1109.59 524.398C1109.21 524.175 1108.84 524.1 1108.47 524.1C1108.09 524.1 1107.65 524.175 1107.35 524.398L1078.97 540.811L1081.21 544.691L1106.23 530.218V559.537H1110.71V530.292L1135.72 544.691Z" fill="#F76342"/>
<path d="M990.639 460.313L1015.65 474.786L1017.89 470.907L989.519 454.493C989.146 454.27 988.773 454.195 988.399 454.195C988.026 454.195 987.578 454.27 987.279 454.493L960.025 470.235V472.772L961.145 474.711L986.159 460.238V558.194L984.068 559.388H992.73L990.639 558.194V460.313Z" fill="#F76342"/>
<path d="M1200.01 472.846V470.31L1198.89 470.907L1200.01 472.846Z" fill="#F76342"/>
<path d="M1021.25 677.189V648.317H1016.77V681.069C1016.77 681.889 1017.22 682.636 1017.89 683.009L1046.27 699.422L1048.51 695.542L1023.49 681.069L1108.39 632.128L1174.77 670.4L1193.29 681.069L1168.28 695.542L1170.52 699.422L1198.89 683.083C1199.56 682.71 1200.01 681.964 1200.01 681.143V648.317H1195.53V677.189L1110.63 628.174V559.537H1106.15V628.248L1021.25 677.189Z" fill="#F76342"/>
<path d="M1141.25 578.412H1136.77V611.164C1136.77 611.985 1137.22 612.731 1137.89 613.104L1166.26 629.517L1168.5 625.637L1143.49 611.164L1200.01 578.562V573.414L1141.25 607.284V578.412Z" fill="#F76342"/>
<path d="M960.025 578.562L988.399 562.148L1073.3 611.164L1048.21 625.637L1050.45 629.517L1078.82 613.104C1079.5 612.731 1079.94 611.985 1079.94 611.164V578.412H1075.46V607.284L992.655 559.537H983.994L959.95 573.414V578.562H960.025Z" fill="#F76342"/>
<path d="M1195.53 817.074L1110.63 768.058V670.176L1135.72 684.65L1137.96 680.77L1109.59 664.357C1109.21 664.133 1108.84 664.059 1108.47 664.059C1108.09 664.059 1107.65 664.133 1107.35 664.357L1078.97 680.77L1081.21 684.65L1106.3 670.176V768.133L1021.4 817.148V788.276H1016.92V821.028C1016.92 821.848 1017.37 822.594 1018.04 822.967L1046.42 839.381L1048.66 835.501L1023.64 821.028L1042.16 810.359L1043.28 809.762L1108.54 772.087L1172.98 809.24L1193.44 821.028L1168.43 835.501L1170.67 839.381L1199.04 823.042C1199.71 822.669 1200.16 821.923 1200.16 821.102V788.351H1195.68V817.074H1195.53Z" fill="#F76342"/>
<path d="M1141.25 718.297H1136.77V751.048C1136.77 751.869 1137.22 752.615 1137.89 752.988L1166.26 769.401L1168.5 765.522L1143.49 751.048L1200.01 718.446V713.298L1141.25 747.169V718.297Z" fill="#F76342"/>
<path d="M1200.01 612.731V610.194L1198.89 610.791L1200.01 612.731Z" fill="#F76342"/>
<path d="M1073.3 751.048L1048.21 765.522L1050.45 769.401L1078.82 752.988C1079.5 752.615 1079.94 751.869 1079.94 751.048V718.297H1075.46V747.169L990.565 698.153V600.197L1015.58 614.67L1017.82 610.791L989.445 594.452C989.071 594.229 988.698 594.154 988.325 594.154C987.951 594.154 987.503 594.229 987.205 594.452L959.95 610.194V612.731L961.07 614.67L986.084 600.197V698.153L959.875 713.224V718.371L988.25 701.958L1073.3 751.048Z" fill="#F76342"/>
<path d="M1135.72 824.46L1137.96 820.58L1109.59 804.167C1109.21 803.943 1108.84 803.869 1108.47 803.869C1108.09 803.869 1107.65 803.943 1107.35 804.167L1078.97 820.58L1081.21 824.46L1106.23 809.986V839.231H1110.71V809.986L1135.72 824.46Z" fill="#F76342"/>
<path d="M990.639 740.081L1015.65 754.555L1017.89 750.675L989.519 734.262C989.146 734.038 988.773 733.964 988.399 733.964C988.026 733.964 987.578 734.038 987.279 734.262L960.025 750.004V752.54L961.145 754.48L986.159 740.007V837.963L984.068 839.157H992.73L990.639 837.963V740.081Z" fill="#F76342"/>
<path d="M1200.01 752.615V750.078L1198.89 750.675L1200.01 752.615Z" fill="#F76342"/>
<path d="M1021.25 956.958V928.086H1016.77V960.837C1016.77 961.658 1017.22 962.404 1017.89 962.777L1046.27 979.19L1048.51 975.311L1023.49 960.837L1108.39 911.897L1174.77 950.169L1193.29 960.837L1168.28 975.311L1170.52 979.19L1198.89 962.852C1199.56 962.479 1200.01 961.733 1200.01 960.912V928.086H1195.53V956.958L1110.63 907.942V839.231H1106.15V907.942L1021.25 956.958Z" fill="#F76342"/>
<path d="M1141.25 858.106H1136.77V890.858C1136.77 891.679 1137.22 892.425 1137.89 892.798L1166.26 909.211L1168.5 905.331L1143.49 890.858L1200.01 858.256V853.108L1141.25 886.979V858.106Z" fill="#F76342"/>
<path d="M960.025 858.33L988.399 841.917L1073.3 890.933L1048.21 905.406L1050.45 909.285L1078.82 892.872C1079.5 892.499 1079.94 891.753 1079.94 890.933V858.181H1075.46V887.053L992.655 839.306H983.994L959.95 853.182V858.33H960.025Z" fill="#F76342"/>
<path d="M1195.53 1096.84L1110.63 1047.83V949.87L1135.72 964.344L1137.96 960.464L1109.59 944.051C1109.21 943.828 1108.84 943.753 1108.47 943.753C1108.09 943.753 1107.65 943.828 1107.35 944.051L1078.97 960.464L1081.21 964.344L1106.3 949.87V1047.83L1021.4 1096.84V1067.97H1016.92V1100.72C1016.92 1101.54 1017.37 1102.29 1018.04 1102.66L1046.42 1119.07L1048.66 1115.2L1023.64 1100.72L1042.16 1090.05L1043.28 1089.46L1108.54 1051.78L1172.98 1088.93L1193.44 1100.72L1168.43 1115.2L1170.67 1119.07L1199.04 1102.74C1199.71 1102.36 1200.16 1101.62 1200.16 1100.8V1068.04H1195.68V1096.84H1195.53Z" fill="#F76342"/>
<path d="M1141.25 997.991H1136.77V1030.74C1136.77 1031.56 1137.22 1032.31 1137.89 1032.68L1166.26 1049.1L1168.5 1045.22L1143.49 1030.74L1200.01 998.14V992.992L1141.25 1026.86V997.991Z" fill="#F76342"/>
<path d="M1200.01 892.499V889.888L1198.89 890.559L1200.01 892.499Z" fill="#F76342"/>
<path d="M1073.3 1030.74L1048.21 1045.22L1050.45 1049.1L1078.82 1032.68C1079.5 1032.31 1079.94 1031.56 1079.94 1030.74V997.991H1075.46V1026.86L990.565 977.847V879.891L1015.58 894.364L1017.82 890.485L989.445 874.146C989.071 873.923 988.698 873.848 988.325 873.848C987.951 873.848 987.503 873.923 987.205 874.146L959.95 889.888V892.425L961.07 894.364L986.084 879.891V977.847L959.875 992.918V998.065L988.25 981.652L1073.3 1030.74Z" fill="#F76342"/>
<path d="M1135.72 1104.23L1137.96 1100.35L1109.59 1083.94C1109.21 1083.71 1108.84 1083.64 1108.47 1083.64C1108.09 1083.64 1107.65 1083.71 1107.35 1083.94L1078.97 1100.35L1081.21 1104.23L1106.23 1089.75V1119H1110.71V1089.75L1135.72 1104.23Z" fill="#F76342"/>
<path d="M990.639 1019.85L1015.65 1034.32L1017.89 1030.44L989.519 1014.03C989.146 1013.81 988.773 1013.73 988.399 1013.73C988.026 1013.73 987.578 1013.81 987.279 1014.03L960.025 1029.77V1032.31L961.145 1034.25L986.159 1019.78V1117.73L984.068 1118.93H992.73L990.639 1117.73V1019.85Z" fill="#F76342"/>
<path d="M1200.01 1032.38V1029.77L1198.89 1030.44L1200.01 1032.38Z" fill="#F76342"/>
<path d="M1261.24 117.727V88.8545H1256.76V121.606C1256.76 122.427 1257.21 123.173 1257.88 123.546L1286.26 139.959L1288.5 136.079L1263.48 121.606L1348.38 72.6652L1414.76 110.938L1433.28 121.606L1408.27 136.079L1410.51 139.959L1438.88 123.62C1439.55 123.247 1440 122.501 1440 121.681V88.9291H1435.52V117.801L1350.62 68.7858V0H1346.14V68.7112L1261.24 117.727Z" fill="#F76342"/>
<path d="M1381.24 18.8751H1376.76V51.6266C1376.76 52.4473 1377.2 53.1933 1377.88 53.5664L1406.25 69.9795L1408.49 66.1L1383.48 51.6266L1440 19.0243V13.8765L1381.24 47.7472V18.8751Z" fill="#F76342"/>
<path d="M1200.01 19.0243L1228.39 2.61117L1313.29 51.6266L1288.2 66.1L1290.44 69.9795L1318.81 53.5664C1319.48 53.1934 1319.93 52.4473 1319.93 51.6266V18.8751H1315.45V47.7472L1232.72 0H1224.06L1200.01 13.8765V19.0243V19.0243Z" fill="#F76342"/>
<path d="M1435.52 257.611L1350.62 208.596V110.639L1375.71 125.113L1377.95 121.233L1349.58 104.82C1349.2 104.596 1348.83 104.522 1348.46 104.522C1348.08 104.522 1347.63 104.596 1347.34 104.82L1318.96 121.233L1321.2 125.113L1346.29 110.639V208.596L1261.39 257.611V228.739H1256.91V261.49C1256.91 262.311 1257.36 263.057 1258.03 263.43L1286.4 279.843L1288.65 275.964L1263.63 261.49L1282.15 250.822L1283.27 250.225L1348.53 212.55L1412.97 249.703L1433.43 261.49L1408.41 275.964L1410.65 279.843L1439.03 263.505C1439.7 263.132 1440.15 262.386 1440.15 261.565V228.813H1435.67V257.611H1435.52Z" fill="#F76342"/>
<path d="M1381.24 158.759H1376.76V191.511C1376.76 192.332 1377.2 193.078 1377.88 193.451L1406.25 209.864L1408.49 205.984L1383.48 191.511L1440 158.909V153.761L1381.24 187.632V158.759Z" fill="#F76342"/>
<path d="M1440 53.1933V50.6568L1438.88 51.3282L1440 53.1933Z" fill="#F76342"/>
<path d="M1313.29 191.511L1288.2 205.984L1290.44 209.864L1318.81 193.451C1319.48 193.078 1319.93 192.332 1319.93 191.511V158.759H1315.45V187.632L1230.55 138.616V40.7343L1255.57 55.2077L1257.81 51.3282L1229.43 34.9897C1229.06 34.7659 1228.69 34.6913 1228.31 34.6913C1227.94 34.6913 1227.49 34.7659 1227.19 34.9897L1199.94 50.7314V53.268L1201.06 55.2077L1226.07 40.7343V138.691L1199.86 153.761V158.909L1228.24 142.495L1313.29 191.511Z" fill="#F76342"/>
<path d="M1375.71 264.997L1377.95 261.117L1349.58 244.704C1349.2 244.48 1348.83 244.406 1348.46 244.406C1348.08 244.406 1347.63 244.48 1347.34 244.704L1318.96 261.117L1321.2 264.997L1346.22 250.523V279.769H1350.7V250.523L1375.71 264.997Z" fill="#F76342"/>
<path d="M1230.63 180.619L1255.64 195.092L1257.88 191.213L1229.51 174.799C1229.13 174.576 1228.76 174.501 1228.39 174.501C1228.01 174.501 1227.57 174.576 1227.27 174.799L1200.01 190.541V193.078L1201.13 195.017L1226.15 180.544V278.5L1224.06 279.694H1232.72L1230.63 278.5V180.619Z" fill="#F76342"/>
<path d="M1440 193.078V190.541L1438.88 191.138L1440 193.078Z" fill="#F76342"/>
<path d="M1261.24 397.495V368.549H1256.76V401.3C1256.76 402.121 1257.21 402.867 1257.88 403.24L1286.26 419.653L1288.5 415.774L1263.48 401.3L1348.38 352.359L1414.76 390.632L1433.28 401.3L1408.27 415.774L1410.51 419.653L1438.88 403.314C1439.55 402.941 1440 402.195 1440 401.375V368.549H1435.52V397.421L1350.62 348.405V279.769H1346.14V348.48L1261.24 397.495Z" fill="#F76342"/>
<path d="M1381.24 298.644H1376.76V331.395C1376.76 332.216 1377.2 332.962 1377.88 333.335L1406.25 349.748L1408.49 345.869L1383.48 331.395L1440 298.793V293.645L1381.24 327.516V298.644Z" fill="#F76342"/>
<path d="M1200.01 298.793L1228.39 282.38L1313.29 331.395L1288.2 345.869L1290.44 349.748L1318.81 333.335C1319.48 332.962 1319.93 332.216 1319.93 331.395V298.644H1315.45V327.516L1232.64 279.769H1223.98L1199.94 293.645V298.793H1200.01Z" fill="#F76342"/>
<path d="M1435.52 537.38L1350.62 488.364V390.408L1375.71 404.881L1377.95 401.002L1349.58 384.589C1349.2 384.365 1348.83 384.29 1348.46 384.29C1348.08 384.29 1347.63 384.365 1347.34 384.589L1318.96 401.002L1321.2 404.881L1346.29 390.408V488.364L1261.39 537.38V508.507H1256.91V541.259C1256.91 542.08 1257.36 542.826 1258.03 543.199L1286.4 559.612L1288.65 555.732L1263.63 541.259L1282.15 530.591L1283.27 529.994L1348.53 492.318L1412.97 529.471L1433.43 541.259L1408.41 555.732L1410.65 559.612L1439.03 543.273C1439.7 542.9 1440.15 542.154 1440.15 541.334V508.582H1435.67V537.38H1435.52Z" fill="#F76342"/>
<path d="M1381.24 438.528H1376.76V471.28C1376.76 472.1 1377.2 472.846 1377.88 473.219L1406.25 489.632L1408.49 485.753L1383.48 471.28L1440 438.677V433.529L1381.24 467.4V438.528Z" fill="#F76342"/>
<path d="M1440 332.962V330.425L1438.88 331.022L1440 332.962Z" fill="#F76342"/>
<path d="M1313.29 471.28L1288.2 485.753L1290.44 489.632L1318.81 473.219C1319.48 472.846 1319.93 472.1 1319.93 471.28V438.528H1315.45V467.4L1230.55 418.385V320.428L1255.57 334.902L1257.81 331.022L1229.43 314.684C1229.06 314.46 1228.69 314.385 1228.31 314.385C1227.94 314.385 1227.49 314.46 1227.19 314.684L1199.94 330.425V332.962L1201.06 334.902L1226.07 320.428V418.385L1199.86 433.455V438.603L1228.24 422.19L1313.29 471.28Z" fill="#F76342"/>
<path d="M1375.71 544.691L1377.95 540.811L1349.58 524.398C1349.2 524.175 1348.83 524.1 1348.46 524.1C1348.08 524.1 1347.63 524.175 1347.34 524.398L1318.96 540.811L1321.2 544.691L1346.22 530.218V559.537H1350.7V530.292L1375.71 544.691Z" fill="#F76342"/>
<path d="M1230.63 460.313L1255.64 474.786L1257.88 470.907L1229.51 454.493C1229.13 454.27 1228.76 454.195 1228.39 454.195C1228.01 454.195 1227.57 454.27 1227.27 454.493L1200.01 470.235V472.772L1201.13 474.711L1226.15 460.238V558.194L1224.06 559.388H1232.72L1230.63 558.194V460.313Z" fill="#F76342"/>
<path d="M1440 472.846V470.31L1438.88 470.907L1440 472.846Z" fill="#F76342"/>
<path d="M1261.24 677.189V648.317H1256.76V681.069C1256.76 681.889 1257.21 682.636 1257.88 683.009L1286.26 699.422L1288.5 695.542L1263.48 681.069L1348.38 632.128L1414.76 670.4L1433.28 681.069L1408.27 695.542L1410.51 699.422L1438.88 683.083C1439.55 682.71 1440 681.964 1440 681.143V648.317H1435.52V677.189L1350.62 628.174V559.537H1346.14V628.248L1261.24 677.189Z" fill="#F76342"/>
<path d="M1381.24 578.412H1376.76V611.164C1376.76 611.985 1377.2 612.731 1377.88 613.104L1406.25 629.517L1408.49 625.637L1383.48 611.164L1440 578.562V573.414L1381.24 607.284V578.412Z" fill="#F76342"/>
<path d="M1200.01 578.562L1228.39 562.148L1313.29 611.164L1288.2 625.637L1290.44 629.517L1318.81 613.104C1319.48 612.731 1319.93 611.985 1319.93 611.164V578.412H1315.45V607.284L1232.64 559.537H1223.98L1199.94 573.414V578.562H1200.01Z" fill="#F76342"/>
<path d="M1435.52 817.074L1350.62 768.058V670.176L1375.71 684.65L1377.95 680.77L1349.58 664.357C1349.2 664.133 1348.83 664.059 1348.46 664.059C1348.08 664.059 1347.63 664.133 1347.34 664.357L1318.96 680.77L1321.2 684.65L1346.29 670.176V768.133L1261.39 817.148V788.276H1256.91V821.028C1256.91 821.848 1257.36 822.594 1258.03 822.967L1286.4 839.381L1288.65 835.501L1263.63 821.028L1282.15 810.359L1283.27 809.762L1348.53 772.087L1412.97 809.24L1433.43 821.028L1408.41 835.501L1410.65 839.381L1439.03 823.042C1439.7 822.669 1440.15 821.923 1440.15 821.102V788.351H1435.67V817.074H1435.52Z" fill="#F76342"/>
<path d="M1381.24 718.297H1376.76V751.048C1376.76 751.869 1377.2 752.615 1377.88 752.988L1406.25 769.401L1408.49 765.522L1383.48 751.048L1440 718.446V713.298L1381.24 747.169V718.297Z" fill="#F76342"/>
<path d="M1440 612.731V610.194L1438.88 610.791L1440 612.731Z" fill="#F76342"/>
<path d="M1313.29 751.048L1288.2 765.522L1290.44 769.401L1318.81 752.988C1319.48 752.615 1319.93 751.869 1319.93 751.048V718.297H1315.45V747.169L1230.55 698.153V600.197L1255.57 614.67L1257.81 610.791L1229.43 594.452C1229.06 594.229 1228.69 594.154 1228.31 594.154C1227.94 594.154 1227.49 594.229 1227.19 594.452L1199.94 610.194V612.731L1201.06 614.67L1226.07 600.197V698.153L1199.86 713.224V718.371L1228.24 701.958L1313.29 751.048Z" fill="#F76342"/>
<path d="M1375.71 824.46L1377.95 820.58L1349.58 804.167C1349.2 803.943 1348.83 803.869 1348.46 803.869C1348.08 803.869 1347.63 803.943 1347.34 804.167L1318.96 820.58L1321.2 824.46L1346.22 809.986V839.231H1350.7V809.986L1375.71 824.46Z" fill="#F76342"/>
<path d="M1230.63 740.081L1255.64 754.555L1257.88 750.675L1229.51 734.262C1229.13 734.038 1228.76 733.964 1228.39 733.964C1228.01 733.964 1227.57 734.038 1227.27 734.262L1200.01 750.004V752.54L1201.13 754.48L1226.15 740.007V837.963L1224.06 839.157H1232.72L1230.63 837.963V740.081Z" fill="#F76342"/>
<path d="M1440 752.615V750.078L1438.88 750.675L1440 752.615Z" fill="#F76342"/>
<path d="M1261.24 956.958V928.086H1256.76V960.837C1256.76 961.658 1257.21 962.404 1257.88 962.777L1286.26 979.19L1288.5 975.311L1263.48 960.837L1348.38 911.897L1414.76 950.169L1433.28 960.837L1408.27 975.311L1410.51 979.19L1438.88 962.852C1439.55 962.479 1440 961.733 1440 960.912V928.086H1435.52V956.958L1350.62 907.942V839.231H1346.14V907.942L1261.24 956.958Z" fill="#F76342"/>
<path d="M1381.24 858.106H1376.76V890.858C1376.76 891.679 1377.2 892.425 1377.88 892.798L1406.25 909.211L1408.49 905.331L1383.48 890.858L1440 858.256V853.108L1381.24 886.979V858.106Z" fill="#F76342"/>
<path d="M1200.01 858.33L1228.39 841.917L1313.29 890.933L1288.2 905.406L1290.44 909.285L1318.81 892.872C1319.48 892.499 1319.93 891.753 1319.93 890.933V858.181H1315.45V887.053L1232.64 839.306H1223.98L1199.94 853.182V858.33H1200.01Z" fill="#F76342"/>
<path d="M1435.52 1096.84L1350.62 1047.83V949.87L1375.71 964.344L1377.95 960.464L1349.58 944.051C1349.2 943.828 1348.83 943.753 1348.46 943.753C1348.08 943.753 1347.63 943.828 1347.34 944.051L1318.96 960.464L1321.2 964.344L1346.29 949.87V1047.83L1261.39 1096.84V1067.97H1256.91V1100.72C1256.91 1101.54 1257.36 1102.29 1258.03 1102.66L1286.4 1119.07L1288.65 1115.2L1263.63 1100.72L1282.15 1090.05L1283.27 1089.46L1348.53 1051.78L1412.97 1088.93L1433.43 1100.72L1408.41 1115.2L1410.65 1119.07L1439.03 1102.74C1439.7 1102.36 1440.15 1101.62 1440.15 1100.8V1068.04H1435.67V1096.84H1435.52Z" fill="#F76342"/>
<path d="M1381.24 997.991H1376.76V1030.74C1376.76 1031.56 1377.2 1032.31 1377.88 1032.68L1406.25 1049.1L1408.49 1045.22L1383.48 1030.74L1440 998.14V992.992L1381.24 1026.86V997.991Z" fill="#F76342"/>
<path d="M1440 892.499V889.888L1438.88 890.559L1440 892.499Z" fill="#F76342"/>
<path d="M1313.29 1030.74L1288.2 1045.22L1290.44 1049.1L1318.81 1032.68C1319.48 1032.31 1319.93 1031.56 1319.93 1030.74V997.991H1315.45V1026.86L1230.55 977.847V879.891L1255.57 894.364L1257.81 890.485L1229.43 874.146C1229.06 873.923 1228.69 873.848 1228.31 873.848C1227.94 873.848 1227.49 873.923 1227.19 874.146L1199.94 889.888V892.425L1201.06 894.364L1226.07 879.891V977.847L1199.86 992.918V998.065L1228.24 981.652L1313.29 1030.74Z" fill="#F76342"/>
<path d="M1375.71 1104.23L1377.95 1100.35L1349.58 1083.94C1349.2 1083.71 1348.83 1083.64 1348.46 1083.64C1348.08 1083.64 1347.63 1083.71 1347.34 1083.94L1318.96 1100.35L1321.2 1104.23L1346.22 1089.75V1119H1350.7V1089.75L1375.71 1104.23Z" fill="#F76342"/>
<path d="M1230.63 1019.85L1255.64 1034.32L1257.88 1030.44L1229.51 1014.03C1229.13 1013.81 1228.76 1013.73 1228.39 1013.73C1228.01 1013.73 1227.57 1013.81 1227.27 1014.03L1200.01 1029.77V1032.31L1201.13 1034.25L1226.15 1019.78V1117.73L1224.06 1118.93H1232.72L1230.63 1117.73V1019.85Z" fill="#F76342"/>
<path d="M1440 1032.38V1029.77L1438.88 1030.44L1440 1032.38Z" fill="#F76342"/>
</g>
<defs>
<clipPath id="clip0">
<rect width="1440" height="1119" fill="white"/>
</clipPath>
</defs>
</svg>
