<?xml version="1.0" encoding="utf-8"?>
<!-- Generator: Adobe Illustrator 25.2.3, SVG Export Plug-In . SVG Version: 6.00 Build 0)  -->
<svg version="1.1" id="Layer_1" xmlns="http://www.w3.org/2000/svg" xmlns:xlink="http://www.w3.org/1999/xlink" x="0px" y="0px"
	 viewBox="0 0 60 60" style="enable-background:new 0 0 60 60;" xml:space="preserve">
<style type="text/css">
	.st0{fill:none;}
	.st1{fill:#2D2D2C;}
</style>
<rect class="st0" width="60" height="60"/>
<g>
	<path class="st1" d="M48.5,6.6c-3.3,0-6,2.5-6.4,5.6h-1.7c-1.3,0-2.4,1.1-2.4,2.4v12.9h-7.3v-9.7c3.2-0.4,5.6-3.1,5.6-6.4
		C36.5,7.9,33.6,5,30,5s-6.5,2.9-6.5,6.5c0,3.3,2.5,6,5.6,6.4v9.7H24l-2.1,2.1v-15c0-1.3-1.1-2.4-2.4-2.4h-1.7
		c-0.4-3.2-3.1-5.6-6.4-5.6C7.9,6.6,5,9.5,5,13.1s2.9,6.5,6.5,6.5c3.3,0,6-2.5,6.4-5.6h1.7c0.4,0,0.8,0.4,0.8,0.8v16.6l-1.6,1.6v9.2
		h-1.6V26h1.6v-1.6h-1.6c-0.9,0-1.6,0.7-1.6,1.6v16.1c0,0.9,0.7,1.6,1.6,1.6h16.1v1.6H16.3c-1.3,0-2.4-1.1-2.4-2.4V25.2
		c0-1.3,1.1-2.4,2.4-2.4h2.4v-1.6h-2.4c-2.2,0-4,1.8-4,4v17.7c0,2.2,1.8,4,4,4h7.3v1.6h-2.4c-1.3,0-2.4,1.1-2.4,2.4v1.6
		c0,1.3,1.1,2.4,2.4,2.4h17.7c1.3,0,2.4-1.1,2.4-2.4V51c0-1.3-1.1-2.4-2.4-2.4h-2.4v-1.6h7.3c2.2,0,4-1.8,4-4V25.2c0-2.2-1.8-4-4-4
		h-2.4v1.6h2.4c1.3,0,2.4,1.1,2.4,2.4v13.7h-1.6V26c0-0.9-0.7-1.6-1.6-1.6h-1.6V26h1.6v12.9h-1.6V27.6h-1.6V14.7
		c0-0.4,0.4-0.8,0.8-0.8h1.7c0.4,3.2,3.1,5.6,6.4,5.6c3.6,0,6.5-2.9,6.5-6.5S52.1,6.6,48.5,6.6z M25.2,11.5c0-0.6,0.1-1.1,0.3-1.6
		H27c-0.1,0.5-0.2,1-0.2,1.6c0,0.6,0.1,1.1,0.2,1.6h-1.5C25.3,12.6,25.2,12,25.2,11.5z M28.4,11.5c0-0.6,0.1-1.1,0.2-1.6h2.8
		c0.1,0.5,0.2,1,0.2,1.6c0,0.6-0.1,1.1-0.2,1.6h-2.8C28.5,12.6,28.4,12,28.4,11.5L28.4,11.5z M29.3,8.2c0.2-0.5,0.5-0.9,0.7-1.2
		c0.2,0.3,0.5,0.7,0.7,1.2H29.3z M34.8,11.5c0,0.6-0.1,1.1-0.3,1.6H33c0.1-0.5,0.2-1,0.2-1.6c0-0.6-0.1-1.1-0.2-1.6h1.5
		C34.7,10.3,34.8,10.9,34.8,11.5z M30.7,14.7c-0.2,0.5-0.5,0.9-0.7,1.2c-0.2-0.3-0.5-0.7-0.7-1.2H30.7z M31.9,15.9
		c0.2-0.4,0.4-0.8,0.6-1.2h1.1C33.1,15.2,32.6,15.6,31.9,15.9z M33.6,8.2h-1.1c-0.2-0.4-0.4-0.9-0.6-1.2C32.6,7.3,33.1,7.7,33.6,8.2
		z M28.1,7c-0.2,0.4-0.4,0.8-0.6,1.2h-1.1C26.9,7.7,27.4,7.3,28.1,7L28.1,7z M26.4,14.7h1.1c0.2,0.4,0.4,0.9,0.6,1.2
		C27.4,15.6,26.9,15.2,26.4,14.7L26.4,14.7z M15,9.8H14c-0.2-0.4-0.4-0.9-0.6-1.2C14,8.9,14.6,9.3,15,9.8z M16.3,13.1
		c0,0.6-0.1,1.1-0.3,1.6h-1.5c0.1-0.5,0.2-1,0.2-1.6s-0.1-1.1-0.2-1.6H16C16.2,12,16.3,12.5,16.3,13.1z M10.1,14.7
		c-0.1-0.5-0.2-1-0.2-1.6c0-0.6,0.1-1.1,0.2-1.6h2.8c0.1,0.5,0.2,1,0.2,1.6c0,0.6-0.1,1.1-0.2,1.6H10.1z M12.2,16.3
		c-0.2,0.5-0.5,0.9-0.7,1.2c-0.2-0.3-0.5-0.7-0.7-1.2H12.2z M6.6,13.1c0-0.6,0.1-1.1,0.3-1.6h1.5c-0.1,0.5-0.2,1-0.2,1.6
		s0.1,1.1,0.2,1.6H6.9C6.7,14.2,6.6,13.6,6.6,13.1z M10.7,9.8C11,9.4,11.2,9,11.5,8.7c0.2,0.3,0.5,0.7,0.7,1.2H10.7z M9.6,8.6
		C9.3,9,9.1,9.4,8.9,9.8H7.9C8.3,9.3,8.9,8.9,9.6,8.6z M7.9,16.3h1.1c0.2,0.4,0.4,0.9,0.6,1.2C8.9,17.2,8.3,16.8,7.9,16.3z
		 M13.4,17.5c0.2-0.4,0.4-0.8,0.6-1.2H15C14.6,16.8,14,17.2,13.4,17.5z M23.5,30.3v2.1h-2.1L23.5,30.3z M38.9,50.2
		c0.4,0,0.8,0.4,0.8,0.8v1.6c0,0.4-0.4,0.8-0.8,0.8H21.1c-0.4,0-0.8-0.4-0.8-0.8V51c0-0.4,0.4-0.8,0.8-0.8h2.4
		c0,0.9,0.8,1.6,1.7,1.6h9.4c1,0,1.7-0.7,1.7-1.6H38.9z M34.9,50.1c0,0-0.1,0-0.1,0h-9.4c-0.1,0-0.1,0-0.1,0v-3.2h9.7L34.9,50.1z
		 M46.1,42.9c0,1.3-1.1,2.4-2.4,2.4h-8.9v-4.8h11.3V42.9z M34.8,38.9c-0.9,0-1.6,0.7-1.6,1.6v1.6H20.3V34h4.8v-4.8h14.5v9.7H34.8z
		 M52.1,9.8h-1.1c-0.2-0.4-0.4-0.9-0.6-1.2C51.1,8.9,51.7,9.3,52.1,9.8z M53.4,13.1c0,0.6-0.1,1.1-0.3,1.6h-1.5
		c0.1-0.5,0.2-1,0.2-1.6s-0.1-1.1-0.2-1.6h1.5C53.3,12,53.4,12.5,53.4,13.1z M47.2,14.7c-0.1-0.5-0.2-1-0.2-1.6
		c0-0.6,0.1-1.1,0.2-1.6h2.8c0.1,0.5,0.2,1,0.2,1.6c0,0.6-0.1,1.1-0.2,1.6H47.2z M49.3,16.3c-0.2,0.5-0.5,0.9-0.7,1.2
		c-0.2-0.3-0.5-0.7-0.7-1.2H49.3z M43.7,13.1c0-0.6,0.1-1.1,0.3-1.6h1.5c-0.1,0.5-0.2,1-0.2,1.6s0.1,1.1,0.2,1.6H44
		C43.8,14.2,43.7,13.6,43.7,13.1z M47.8,9.8c0.2-0.5,0.5-0.9,0.7-1.2C48.8,9,49,9.4,49.3,9.8H47.8z M46.6,8.6
		C46.4,9,46.2,9.4,46,9.8H45C45.4,9.3,46,8.9,46.6,8.6z M45,16.3H46c0.2,0.4,0.4,0.9,0.6,1.2C46,17.2,45.4,16.8,45,16.3z M50.4,17.5
		c0.2-0.4,0.4-0.8,0.6-1.2h1.1C51.7,16.8,51.1,17.2,50.4,17.5z"/>
	<path class="st1" d="M23.5,21.1h4v1.6h-4V21.1z"/>
	<path class="st1" d="M32.4,21.1h4v1.6h-4V21.1z"/>
	<path class="st1" d="M32.4,24.4h4V26h-4V24.4z"/>
	<path class="st1" d="M23.5,24.4h4V26h-4V24.4z"/>
	<path class="st1" d="M42.9,42.1h1.6v1.6h-1.6V42.1z"/>
	<path class="st1" d="M39.7,42.1h1.6v1.6h-1.6V42.1z"/>
	<path class="st1" d="M36.5,42.1h1.6v1.6h-1.6V42.1z"/>
	<path class="st1" d="M26.8,32.4h11.3V34H26.8V32.4z"/>
	<path class="st1" d="M21.9,35.6h16.1v1.6H21.9V35.6z"/>
	<path class="st1" d="M21.9,38.9h1.6v1.6h-1.6V38.9z"/>
	<path class="st1" d="M25.2,38.9h1.6v1.6h-1.6V38.9z"/>
	<path class="st1" d="M28.4,38.9H30v1.6h-1.6V38.9z"/>
</g>
</svg>
