<svg version="1.1" xmlns="http://www.w3.org/2000/svg" viewBox="0 0 816.94189453125 366.2268371582031" width="1633.8837890625" height="732.4536743164062">
  <!-- svg-source:excalidraw -->
  
  <defs>
    <style class="style-fonts">
      @font-face {
        font-family: "Virgil";
        src: url("https://excalidraw.com/Virgil.woff2");
      }
      @font-face {
        font-family: "Cascadia";
        src: url("https://excalidraw.com/Cascadia.woff2");
      }
    </style>
  </defs>
  <g stroke-linecap="round" transform="translate(282.6568603515625 60.622222900390625) rotate(0 74.48675537109375 135.55630493164062)"><path d="M32 0 M32 0 C59.28 -1.25, 82.91 1.48, 116.97 0 M32 0 C63.23 -0.12, 94.32 0.77, 116.97 0 M116.97 0 C136.8 1.71, 149.16 11.56, 148.97 32 M116.97 0 C138.13 0.09, 146.81 10.32, 148.97 32 M148.97 32 C147.77 75.84, 148.49 117.01, 148.97 239.11 M148.97 32 C148.42 106.81, 149 180.62, 148.97 239.11 M148.97 239.11 C149.05 261.97, 139.29 270.75, 116.97 271.11 M148.97 239.11 C151.17 258.23, 139.38 271.97, 116.97 271.11 M116.97 271.11 C97.41 270.53, 81.12 271.98, 32 271.11 M116.97 271.11 C86.52 270.87, 56.56 269.88, 32 271.11 M32 271.11 C11.84 270.21, 1.14 258.64, 0 239.11 M32 271.11 C8.48 270.37, -0.67 261.61, 0 239.11 M0 239.11 C3.24 170.31, 2.09 103.51, 0 32 M0 239.11 C0.44 175.58, 0.69 112.93, 0 32 M0 32 C0.22 10.31, 12.01 -0.33, 32 0 M0 32 C0.69 11.35, 11.36 0.5, 32 0" stroke="#000000" stroke-width="1" fill="none"></path></g><g transform="translate(325.3837890625 74.91445922851562) rotate(0 31 12.5)"><text x="0" y="18" font-family="Virgil, Segoe UI Emoji" font-size="20px" fill="#000000" text-anchor="start" style="white-space: pre;" direction="ltr">Bridge</text></g><g stroke-linecap="round" transform="translate(300.1868896484375 116.12017822265625) rotate(0 56.45751953125 30)"><path d="M15 0 M15 0 C42.06 0.83, 68.6 -1.36, 97.92 0 M15 0 C47.4 -0.13, 81.5 -0.61, 97.92 0 M97.92 0 C107.64 1.96, 111.65 5.48, 112.92 15 M97.92 0 C109.49 2.03, 113.67 4.34, 112.92 15 M112.92 15 C114.17 27.42, 113.76 37.24, 112.92 45 M112.92 15 C112.35 24.36, 113.4 34.91, 112.92 45 M112.92 45 C111.57 54.92, 107.12 58.5, 97.92 60 M112.92 45 C113.22 57.18, 107 60.21, 97.92 60 M97.92 60 C71.36 60.62, 44.34 62.64, 15 60 M97.92 60 C65.46 60.68, 34.12 60.97, 15 60 M15 60 C3.91 59.64, 0.48 53.24, 0 45 M15 60 C4.18 60.14, 1.18 53.71, 0 45 M0 45 C-1.46 34.19, 0.38 27.02, 0 15 M0 45 C-1.14 37.89, -0.79 32.34, 0 15 M0 15 C1.48 5.31, 5.74 1.79, 15 0 M0 15 C-0.97 6.26, 5.8 0.47, 15 0" stroke="#000000" stroke-width="1" fill="none"></path></g><g transform="translate(309.1444091796875 121.12017822265625) rotate(0 47.5 25)"><text x="47.5" y="18" font-family="Virgil, Segoe UI Emoji" font-size="20px" fill="#000000" text-anchor="middle" style="white-space: pre;" direction="ltr">External </text><text x="47.5" y="43" font-family="Virgil, Segoe UI Emoji" font-size="20px" fill="#000000" text-anchor="middle" style="white-space: pre;" direction="ltr">Secrets</text></g><g stroke-linecap="round" transform="translate(299.13922119140625 188.05154418945312) rotate(0 58.6578369140625 30)"><path d="M15 0 M15 0 C40.58 -0.66, 68.83 -2.06, 102.32 0 M15 0 C37.51 -0.23, 60.94 -0.11, 102.32 0 M102.32 0 C110.79 -1.15, 117.64 6.33, 117.32 15 M102.32 0 C110.2 1.48, 115.89 2.83, 117.32 15 M117.32 15 C118.62 21.68, 117.88 29.54, 117.32 45 M117.32 15 C117.69 21.81, 116.79 29.75, 117.32 45 M117.32 45 C118.15 53.73, 110.37 58.53, 102.32 60 M117.32 45 C118.04 55.54, 114.45 58.9, 102.32 60 M102.32 60 C76.86 61.52, 51.82 58.18, 15 60 M102.32 60 C80.64 60.14, 59.24 60.41, 15 60 M15 60 C4.8 59.58, 0.22 56.1, 0 45 M15 60 C5.5 59.46, 1.56 55.51, 0 45 M0 45 C1.99 31.82, -0.35 22.6, 0 15 M0 45 C-0.25 37.09, 1.09 30.64, 0 15 M0 15 C0.78 5.37, 5.65 1.96, 15 0 M0 15 C1.81 3.48, 3.93 1.26, 15 0" stroke="#000000" stroke-width="1" fill="none"></path></g><g transform="translate(319.29705810546875 193.05154418945312) rotate(0 38.5 25)"><text x="38.5" y="18" font-family="Virgil, Segoe UI Emoji" font-size="20px" fill="#000000" text-anchor="middle" style="white-space: pre;" direction="ltr">Sealed </text><text x="38.5" y="43" font-family="Virgil, Segoe UI Emoji" font-size="20px" fill="#000000" text-anchor="middle" style="white-space: pre;" direction="ltr">Secrets</text></g><g stroke-linecap="round" transform="translate(306.48724365234375 259.8490905761719) rotate(0 51.0760498046875 30)"><path d="M15 0 M15 0 C42.82 -0.75, 69.28 1.36, 87.15 0 M15 0 C42.13 -0.08, 68.43 0.32, 87.15 0 M87.15 0 C98.16 -1.34, 102.73 6.9, 102.15 15 M87.15 0 C95.89 -0.42, 104.13 5.22, 102.15 15 M102.15 15 C100.64 22.52, 101.27 28.43, 102.15 45 M102.15 15 C103.25 26.67, 101.4 37.27, 102.15 45 M102.15 45 C102.09 55.82, 97.57 59.67, 87.15 60 M102.15 45 C103.87 54.11, 98.86 58.96, 87.15 60 M87.15 60 C63.45 59.05, 42.06 60.68, 15 60 M87.15 60 C67.08 59.65, 46.46 59.78, 15 60 M15 60 C3.64 60.8, -1.27 56.7, 0 45 M15 60 C6.4 58.7, -1.25 55.27, 0 45 M0 45 C0.47 40.41, -0.51 33.94, 0 15 M0 45 C-0.72 36.52, -0.32 26.75, 0 15 M0 15 C-0.73 3.54, 6.58 -0.87, 15 0 M0 15 C-0.78 3.35, 4.74 0.22, 15 0" stroke="#000000" stroke-width="1" fill="none"></path></g><g transform="translate(313.06329345703125 264.8490905761719) rotate(0 44.5 25)"><text x="44.5" y="18" font-family="Virgil, Segoe UI Emoji" font-size="20px" fill="#000000" text-anchor="middle" style="white-space: pre;" direction="ltr">Vendor </text><text x="44.5" y="43" font-family="Virgil, Segoe UI Emoji" font-size="20px" fill="#000000" text-anchor="middle" style="white-space: pre;" direction="ltr">Solutions</text></g><g stroke-linecap="round" transform="translate(251.01904296875 37.064239501953125) rotate(0 197.00140380859375 159.581298828125)"><path d="M32 0 M32 0 C130.78 -0.27, 230.79 -0.44, 362 0 M362 0 C381.99 1.78, 392.79 9.43, 394 32 M394 32 C393.04 132.42, 393.95 234.08, 394 287.16 M394 287.16 C394.66 306.77, 381.5 317.45, 362 319.16 M362 319.16 C276.2 318.26, 190.66 319.54, 32 319.16 M32 319.16 C9.41 320.35, -0.87 308.27, 0 287.16 M0 287.16 C0.52 228.61, 0.92 167.38, 0 32 M0 32 C-1.41 9.1, 11.54 -1.39, 32 0" stroke="#000000" stroke-width="1.5" fill="none" stroke-dasharray="1.5 7"></path></g><g transform="translate(273.4613037109375 10) rotate(0 54.5 12.5)"><text x="0" y="18" font-family="Virgil, Segoe UI Emoji" font-size="20px" fill="#000000" text-anchor="start" style="white-space: pre;" direction="ltr">Kubernetes</text></g><g stroke-linecap="round" transform="translate(500.88018798828125 163.04965209960938) rotate(0 63.5 42.5)"><path d="M21.25 0 M21.25 0 C40.46 -0.76, 54.41 0.97, 105.75 0 M21.25 0 C40.43 -0.84, 60.56 -0.53, 105.75 0 M105.75 0 C121.22 -0.31, 126.44 7.36, 127 21.25 M105.75 0 C117.81 -2.27, 127.75 7.85, 127 21.25 M127 21.25 C128.1 36.04, 127.86 49.11, 127 63.75 M127 21.25 C126.74 29.82, 127.22 40.91, 127 63.75 M127 63.75 C126.89 79.46, 121.33 84.13, 105.75 85 M127 63.75 C127.52 76.36, 118.8 87.03, 105.75 85 M105.75 85 C71.71 85.23, 40.51 85.9, 21.25 85 M105.75 85 C82.81 84.12, 59.96 84.85, 21.25 85 M21.25 85 C6.23 84.74, 1.55 76.45, 0 63.75 M21.25 85 C9.09 86.05, 0.66 79.74, 0 63.75 M0 63.75 C0.37 52.01, 0.05 40.29, 0 21.25 M0 63.75 C-0.78 54.07, 0.02 45.83, 0 21.25 M0 21.25 C-1.26 6.64, 6.29 0.14, 21.25 0 M0 21.25 C-1.81 5.44, 4.81 -0.43, 21.25 0" stroke="#000000" stroke-width="1" fill="none"></path></g><g transform="translate(510.38018798828125 180.54965209960938) rotate(0 54 25)"><text x="54" y="18" font-family="Virgil, Segoe UI Emoji" font-size="20px" fill="#000000" text-anchor="middle" style="white-space: pre;" direction="ltr">Kubernetes</text><text x="54" y="43" font-family="Virgil, Segoe UI Emoji" font-size="20px" fill="#000000" text-anchor="middle" style="white-space: pre;" direction="ltr">Secrets</text></g><g stroke-linecap="round"><g transform="translate(408.8726806640625 291.4100646972656) rotate(0 47.81934506490825 -28.461638880521065)"><path d="M1.01 -0.31 C17.04 -9.31, 79.71 -45.7, 95.55 -54.73 M0.09 -1.52 C15.97 -10.81, 78.52 -47.45, 94.4 -56.61" stroke="#000000" stroke-width="1" fill="none"></path></g><g transform="translate(408.8726806640625 291.4100646972656) rotate(0 47.81934506490825 -28.461638880521065)"><path d="M74.68 -34.2 C80.93 -39.25, 86.1 -43.61, 94.91 -55.09 M76.14 -32.89 C80.74 -40.82, 86.68 -45.87, 93.87 -56.79" stroke="#000000" stroke-width="1" fill="none"></path></g><g transform="translate(408.8726806640625 291.4100646972656) rotate(0 47.81934506490825 -28.461638880521065)"><path d="M64.36 -51.93 C73.08 -52.64, 80.83 -52.56, 94.91 -55.09 M65.82 -50.63 C73.36 -53.39, 82.25 -53.37, 93.87 -56.79" stroke="#000000" stroke-width="1" fill="none"></path></g></g><mask></mask><g stroke-linecap="round"><g transform="translate(417.13873291015625 212.52444458007812) rotate(0 42.906035964945374 -3.53446006365121)"><path d="M0.55 0.94 C14.98 -0.29, 72.36 -6.74, 86.44 -8 M-0.63 0.38 C13.71 -0.66, 71.12 -5.38, 85.81 -6.91" stroke="#000000" stroke-width="1" fill="none"></path></g><g transform="translate(417.13873291015625 212.52444458007812) rotate(0 42.906035964945374 -3.53446006365121)"><path d="M60.23 6.88 C65.13 0.74, 75.12 -3.12, 85.71 -6.38 M59.05 6.45 C66.26 1.93, 75.01 -2.14, 85.34 -6.93" stroke="#000000" stroke-width="1" fill="none"></path></g><g transform="translate(417.13873291015625 212.52444458007812) rotate(0 42.906035964945374 -3.53446006365121)"><path d="M58.36 -13.56 C63.69 -13.84, 74.22 -11.83, 85.71 -6.38 M57.18 -13.99 C64.96 -12.32, 74.27 -10.2, 85.34 -6.93" stroke="#000000" stroke-width="1" fill="none"></path></g></g><mask></mask><g stroke-linecap="round"><g transform="translate(414.763427734375 142.86099243164062) rotate(0 43.02371138350105 18.26206016635524)"><path d="M1.06 0.84 C15.48 6.72, 71.79 29.27, 85.89 35.02 M0.16 0.23 C14.51 6.31, 70.99 30.23, 85.11 36.29" stroke="#000000" stroke-width="1" fill="none"></path></g><g transform="translate(414.763427734375 142.86099243164062) rotate(0 43.02371138350105 18.26206016635524)"><path d="M56.55 35.24 C61.69 34.92, 69.64 36.52, 84.09 35 M55.07 34.1 C65.18 34.99, 77.29 36.68, 85.64 36.8" stroke="#000000" stroke-width="1" fill="none"></path></g><g transform="translate(414.763427734375 142.86099243164062) rotate(0 43.02371138350105 18.26206016635524)"><path d="M64.59 16.36 C67.7 20.76, 73.67 27.01, 84.09 35 M63.11 15.22 C70.39 22.78, 79.65 31.15, 85.64 36.8" stroke="#000000" stroke-width="1" fill="none"></path></g></g><mask></mask><g stroke-linecap="round" transform="translate(12.0206298828125 62.191802978515625) rotate(0 86.0355224609375 42.5)"><path d="M21.25 0 M21.25 0 C60.35 0.02, 102.86 -1.03, 150.82 0 M21.25 0 C51.15 -1, 79.24 -0.29, 150.82 0 M150.82 0 C166.64 -1.49, 170.46 5.34, 172.07 21.25 M150.82 0 C165.23 2.18, 170.46 9.32, 172.07 21.25 M172.07 21.25 C173.43 32.7, 171.37 49.41, 172.07 63.75 M172.07 21.25 C171.93 33.15, 172.03 46.26, 172.07 63.75 M172.07 63.75 C172.85 76.27, 163.16 84.09, 150.82 85 M172.07 63.75 C171.31 76.01, 165.22 85.94, 150.82 85 M150.82 85 C106.16 85.69, 58.61 86.73, 21.25 85 M150.82 85 C99.94 85.93, 46.87 86.06, 21.25 85 M21.25 85 C5.77 84.01, -0.4 77.13, 0 63.75 M21.25 85 C6.33 85.41, 1.62 79.39, 0 63.75 M0 63.75 C1.31 49.57, 0.42 36.87, 0 21.25 M0 63.75 C-0.27 51.35, -0.64 38.07, 0 21.25 M0 21.25 C-1.79 8.15, 7.44 1.71, 21.25 0 M0 21.25 C0.59 8.06, 5.64 -0.69, 21.25 0" stroke="#000000" stroke-width="1" fill="none"></path></g><g transform="translate(39.05615234375 67.19180297851562) rotate(0 59 37.5)"><text x="59" y="18" font-family="Virgil, Segoe UI Emoji" font-size="20px" fill="#000000" text-anchor="middle" style="white-space: pre;" direction="ltr">Web Based </text><text x="59" y="43" font-family="Virgil, Segoe UI Emoji" font-size="20px" fill="#000000" text-anchor="middle" style="white-space: pre;" direction="ltr">Secrets </text><text x="59" y="68" font-family="Virgil, Segoe UI Emoji" font-size="20px" fill="#000000" text-anchor="middle" style="white-space: pre;" direction="ltr">Manager</text></g><g stroke-linecap="round"><g transform="translate(184.11871337890625 102.78384399414062) rotate(0 57.83715093404055 17.959134159013644)"><path d="M0.77 0.46 C20.06 6.13, 96.74 29.09, 115.97 34.9 M-0.29 -0.35 C18.89 5.43, 96.06 30.09, 115.42 36.27" stroke="#000000" stroke-width="1" fill="none"></path></g><g transform="translate(184.11871337890625 102.78384399414062) rotate(0 57.83715093404055 17.959134159013644)"><path d="M86.21 38.76 C94.42 38.48, 104.67 37.21, 117.27 36.17 M85.59 37.06 C95.5 36.17, 107.25 36.81, 116.28 36.53" stroke="#000000" stroke-width="1" fill="none"></path></g><g transform="translate(184.11871337890625 102.78384399414062) rotate(0 57.83715093404055 17.959134159013644)"><path d="M92.44 19.21 C98.81 25.18, 107.08 30.12, 117.27 36.17 M91.83 17.51 C99.4 23.55, 108.94 31.13, 116.28 36.53" stroke="#000000" stroke-width="1" fill="none"></path></g></g><mask></mask><g stroke-linecap="round"><g transform="translate(182.4486083984375 122.84823608398438) rotate(0 63.59688750915228 77.52427944600578)"><path d="M-0.92 -1 C20.49 24.93, 106.78 128.47, 128.11 154.57 M0.8 1.09 C22.13 27.31, 106.55 130.61, 127.42 156.05" stroke="#000000" stroke-width="1" fill="none"></path></g><g transform="translate(182.4486083984375 122.84823608398438) rotate(0 63.59688750915228 77.52427944600578)"><path d="M99.96 141.55 C108.27 144.13, 116.95 150.26, 126.1 155.38 M101.78 141.44 C109.59 144.74, 117.2 150.45, 128.02 155.58" stroke="#000000" stroke-width="1" fill="none"></path></g><g transform="translate(182.4486083984375 122.84823608398438) rotate(0 63.59688750915228 77.52427944600578)"><path d="M115.84 128.55 C119.76 134.51, 124.17 144.15, 126.1 155.38 M117.66 128.44 C120.44 135.82, 123.12 145.57, 128.02 155.58" stroke="#000000" stroke-width="1" fill="none"></path></g></g><mask></mask><g stroke-linecap="round" transform="translate(10 184.04348754882812) rotate(0 87.52413940429688 31.814208984375)"><path d="M15.91 0 M15.91 0 C54.26 1.34, 89.12 1.66, 159.14 0 M15.91 0 C65.2 -0.17, 115.92 -0.01, 159.14 0 M159.14 0 C171.12 -0.86, 175.53 6.76, 175.05 15.91 M159.14 0 C168.24 2.23, 174.02 3.38, 175.05 15.91 M175.05 15.91 C176.42 25.36, 174.32 33.3, 175.05 47.72 M175.05 15.91 C174.48 25.95, 174.29 35.82, 175.05 47.72 M175.05 47.72 C173.35 58.87, 170.66 63.19, 159.14 63.63 M175.05 47.72 C176.13 58.36, 171.89 62.38, 159.14 63.63 M159.14 63.63 C107.09 63.34, 54.12 63.18, 15.91 63.63 M159.14 63.63 C110.25 63.86, 59.74 65.15, 15.91 63.63 M15.91 63.63 C3.77 64.5, 1.89 59.03, 0 47.72 M15.91 63.63 C3.86 64.47, 2.28 59.67, 0 47.72 M0 47.72 C-0.35 39.34, 2 30.4, 0 15.91 M0 47.72 C0.92 40.24, 0.63 33.21, 0 15.91 M0 15.91 C1.93 4.8, 4.1 1.31, 15.91 0 M0 15.91 C0.58 4.06, 5.94 1.89, 15.91 0" stroke="#000000" stroke-width="1" fill="none"></path></g><g transform="translate(53.024139404296875 203.35769653320312) rotate(0 44.5 12.5)"><text x="44.5" y="18" font-family="Virgil, Segoe UI Emoji" font-size="20px" fill="#000000" text-anchor="middle" style="white-space: pre;" direction="ltr">Git Repo</text></g><g stroke-linecap="round"><g transform="translate(184.1572265625 214.82974243164062) rotate(0 59.42323924616909 1.2823138039559296)"><path d="M1.02 -1.01 C20.7 -0.26, 99.22 2.87, 118.75 3.57 M0.09 1.07 C19.54 1.6, 97.56 1.99, 117.66 2.01" stroke="#000000" stroke-width="1" fill="none"></path></g><g transform="translate(184.1572265625 214.82974243164062) rotate(0 59.42323924616909 1.2823138039559296)"><path d="M87.75 11.71 C101.28 7, 110.63 4.68, 118.55 0.65 M89.76 12.15 C99.77 8.45, 109.58 4.3, 117.49 2.18" stroke="#000000" stroke-width="1" fill="none"></path></g><g transform="translate(184.1572265625 214.82974243164062) rotate(0 59.42323924616909 1.2823138039559296)"><path d="M87.83 -8.81 C101.16 -6.26, 110.48 -1.31, 118.55 0.65 M89.83 -8.37 C99.81 -4.74, 109.6 -1.56, 117.49 2.18" stroke="#000000" stroke-width="1" fill="none"></path></g></g><mask></mask><g stroke-linecap="round" transform="translate(683.5430908203125 52.86322021484375) rotate(0 61.69940185546875 30)"><path d="M15 0 M15 0 C38.38 0.44, 57.57 0.91, 108.4 0 M15 0 C39.41 -0.28, 63.39 0.68, 108.4 0 M108.4 0 C118.88 0.17, 125.04 5.54, 123.4 15 M108.4 0 C118.31 1.9, 122.25 4.32, 123.4 15 M123.4 15 C124.13 23.51, 121.93 32.43, 123.4 45 M123.4 15 C123.54 21.09, 124.19 28, 123.4 45 M123.4 45 C123.86 54.36, 116.95 60.17, 108.4 60 M123.4 45 C125.32 55.34, 116.76 61.39, 108.4 60 M108.4 60 C77.86 60.56, 51.72 59.62, 15 60 M108.4 60 C85.99 58.99, 60.74 59.49, 15 60 M15 60 C5.95 61.79, -1.27 55.66, 0 45 M15 60 C5.83 60.42, -0.19 57.14, 0 45 M0 45 C-1.33 39.62, -1.63 30.95, 0 15 M0 45 C0.22 33.98, -0.86 21.93, 0 15 M0 15 C1.93 3.6, 5.65 -1.97, 15 0 M0 15 C2 2.78, 4.21 -1.03, 15 0" stroke="#000000" stroke-width="1" fill="none"></path></g><g transform="translate(695.2424926757812 57.86322021484375) rotate(0 50 25)"><text x="50" y="18" font-family="Virgil, Segoe UI Emoji" font-size="20px" fill="#000000" text-anchor="middle" style="white-space: pre;" direction="ltr">Hashicorp </text><text x="50" y="43" font-family="Virgil, Segoe UI Emoji" font-size="20px" fill="#000000" text-anchor="middle" style="white-space: pre;" direction="ltr">Vault</text></g><g stroke-linecap="round" transform="translate(684.10595703125 132.38629150390625) rotate(0 61.33624267578125 32.59442138671875)"><path d="M16.3 0 M16.3 0 C42.06 2.33, 68.78 2.45, 106.38 0 M16.3 0 C39.02 0.93, 60.16 0.36, 106.38 0 M106.38 0 C117.96 0.36, 122.5 7.29, 122.67 16.3 M106.38 0 C115.35 -1.49, 122.15 3.68, 122.67 16.3 M122.67 16.3 C124.12 28.58, 121.78 40.25, 122.67 48.89 M122.67 16.3 C123.39 27.3, 122.75 38.72, 122.67 48.89 M122.67 48.89 C124.41 57.82, 116.56 64.29, 106.38 65.19 M122.67 48.89 C120.46 59.71, 115.92 66.63, 106.38 65.19 M106.38 65.19 C87.07 66.53, 70.56 65.17, 16.3 65.19 M106.38 65.19 C78.26 65.55, 51.26 66.48, 16.3 65.19 M16.3 65.19 C6.37 63.76, -0.31 57.82, 0 48.89 M16.3 65.19 C3.32 64.34, 2.13 61.86, 0 48.89 M0 48.89 C-1.65 42.28, -1.18 32.51, 0 16.3 M0 48.89 C0.68 41.03, -0.69 34.69, 0 16.3 M0 16.3 C0.25 6.19, 7.32 -1.99, 16.3 0 M0 16.3 C-1.99 5.01, 6.11 0.24, 16.3 0" stroke="#000000" stroke-width="1" fill="none"></path></g><g transform="translate(693.4421997070312 152.480712890625) rotate(0 52 12.5)"><text x="52" y="18" font-family="Virgil, Segoe UI Emoji" font-size="20px" fill="#000000" text-anchor="middle" style="white-space: pre;" direction="ltr">Cloud KMS</text></g><g stroke-linecap="round"><g transform="translate(683.00927734375 90.53500366210938) rotate(0 -136.38023308395407 19.189101385911925)"><path d="M-0.18 0.28 C-45.5 6.87, -226.53 32.46, -271.54 39 M-1.73 -0.62 C-47.26 5.64, -227.8 30.68, -272.58 37.04" stroke="#000000" stroke-width="1" fill="none"></path></g><g transform="translate(683.00927734375 90.53500366210938) rotate(0 -136.38023308395407 19.189101385911925)"><path d="M-245.62 22.67 C-254.39 29.47, -262.36 33.3, -273.23 38.13 M-246.13 22.37 C-252.74 26.55, -259.23 29.15, -271.83 37.38" stroke="#000000" stroke-width="1" fill="none"></path></g><g transform="translate(683.00927734375 90.53500366210938) rotate(0 -136.38023308395407 19.189101385911925)"><path d="M-242.77 42.99 C-252.4 43.07, -261.31 40.18, -273.23 38.13 M-243.28 42.7 C-250.66 41.79, -257.85 39.3, -271.83 37.38" stroke="#000000" stroke-width="1" fill="none"></path></g></g><mask></mask><g stroke-linecap="round"><g transform="translate(685.24267578125 153.60498046875) rotate(0 -137.52000821948047 -9.272100068330758)"><path d="M0.53 0.48 C-45.29 -2.49, -228.71 -14.16, -274.62 -17.4 M-0.66 -0.31 C-46.65 -3.64, -229.7 -16.07, -275.57 -19.02" stroke="#000000" stroke-width="1" fill="none"></path></g><g transform="translate(685.24267578125 153.60498046875) rotate(0 -137.52000821948047 -9.272100068330758)"><path d="M-245.96 -27.4 C-254.43 -25.06, -266.37 -23.78, -276.27 -18.25 M-246.09 -27.26 C-258.14 -23.86, -268.61 -21.04, -274.78 -19.16" stroke="#000000" stroke-width="1" fill="none"></path></g><g transform="translate(685.24267578125 153.60498046875) rotate(0 -137.52000821948047 -9.272100068330758)"><path d="M-247.32 -6.92 C-255.42 -11.19, -266.93 -16.52, -276.27 -18.25 M-247.46 -6.78 C-258.85 -10.78, -268.83 -15.37, -274.78 -19.16" stroke="#000000" stroke-width="1" fill="none"></path></g></g><mask></mask></svg>