<svg version="1.1" xmlns="http://www.w3.org/2000/svg" viewBox="0 0 591.1472778320312 178.35684204101562" width="1182.2945556640625" height="356.71368408203125">
  <!-- svg-source:excalidraw -->
  
  <defs>
    <style class="style-fonts">
      @font-face {
        font-family: "Virgil";
        src: url("https://excalidraw.com/Virgil.woff2");
      }
      @font-face {
        font-family: "Cascadia";
        src: url("https://excalidraw.com/Cascadia.woff2");
      }
    </style>
  </defs>
  <g stroke-linecap="round" transform="translate(228.32666015625 37.064239501953125) rotate(0 176.41030883789062 65.64630126953125)"><path d="M32 0 M32 0 C118.43 -0.22, 206.2 -0.42, 320.82 0 M320.82 0 C340.8 1.78, 351.61 9.43, 352.82 32 M352.82 32 C352.34 58.03, 353.47 85.58, 352.82 99.29 M352.82 99.29 C353.48 118.9, 340.32 129.58, 320.82 131.29 M320.82 131.29 C245.61 130.36, 170.68 131.76, 32 131.29 M32 131.29 C9.41 132.48, -0.87 120.4, 0 99.29 M0 99.29 C-0.01 84.71, 0.48 66.81, 0 32 M0 32 C-1.41 9.1, 11.54 -1.39, 32 0" stroke="#000000" stroke-width="1.5" fill="none" stroke-dasharray="1.5 7"></path></g><g transform="translate(250.7689208984375 10) rotate(0 54.5 12.5)"><text x="0" y="18" font-family="Virgil, Segoe UI Emoji" font-size="20px" fill="#000000" text-anchor="start" style="white-space: pre;" direction="ltr">Kubernetes</text></g><g stroke-linecap="round" transform="translate(433.13873291015625 53.984710693359375) rotate(0 63.5 42.5)"><path d="M21.25 0 M21.25 0 C40.46 -0.76, 54.41 0.97, 105.75 0 M21.25 0 C40.43 -0.84, 60.56 -0.53, 105.75 0 M105.75 0 C121.22 -0.31, 126.44 7.36, 127 21.25 M105.75 0 C117.81 -2.27, 127.75 7.85, 127 21.25 M127 21.25 C128.1 36.04, 127.86 49.11, 127 63.75 M127 21.25 C126.74 29.82, 127.22 40.91, 127 63.75 M127 63.75 C126.89 79.46, 121.33 84.13, 105.75 85 M127 63.75 C127.52 76.36, 118.8 87.03, 105.75 85 M105.75 85 C71.71 85.23, 40.51 85.9, 21.25 85 M105.75 85 C82.81 84.12, 59.96 84.85, 21.25 85 M21.25 85 C6.23 84.74, 1.55 76.45, 0 63.75 M21.25 85 C9.09 86.05, 0.66 79.74, 0 63.75 M0 63.75 C0.37 52.01, 0.05 40.29, 0 21.25 M0 63.75 C-0.78 54.07, 0.02 45.83, 0 21.25 M0 21.25 C-1.26 6.64, 6.29 0.14, 21.25 0 M0 21.25 C-1.81 5.44, 4.81 -0.43, 21.25 0" stroke="#000000" stroke-width="1" fill="none"></path></g><g transform="translate(442.63873291015625 71.48471069335938) rotate(0 54 25)"><text x="54" y="18" font-family="Virgil, Segoe UI Emoji" font-size="20px" fill="#000000" text-anchor="middle" style="white-space: pre;" direction="ltr">Kubernetes</text><text x="54" y="43" font-family="Virgil, Segoe UI Emoji" font-size="20px" fill="#000000" text-anchor="middle" style="white-space: pre;" direction="ltr">Secrets</text></g><g stroke-linecap="round" transform="translate(10 73.51565551757812) rotate(0 87.52413940429688 31.814208984375)"><path d="M15.91 0 M15.91 0 C54.26 1.34, 89.12 1.66, 159.14 0 M15.91 0 C65.2 -0.17, 115.92 -0.01, 159.14 0 M159.14 0 C171.12 -0.86, 175.53 6.76, 175.05 15.91 M159.14 0 C168.24 2.23, 174.02 3.38, 175.05 15.91 M175.05 15.91 C176.42 25.36, 174.32 33.3, 175.05 47.72 M175.05 15.91 C174.48 25.95, 174.29 35.82, 175.05 47.72 M175.05 47.72 C173.35 58.87, 170.66 63.19, 159.14 63.63 M175.05 47.72 C176.13 58.36, 171.89 62.38, 159.14 63.63 M159.14 63.63 C107.09 63.34, 54.12 63.18, 15.91 63.63 M159.14 63.63 C110.25 63.86, 59.74 65.15, 15.91 63.63 M15.91 63.63 C3.77 64.5, 1.89 59.03, 0 47.72 M15.91 63.63 C3.86 64.47, 2.28 59.67, 0 47.72 M0 47.72 C-0.35 39.34, 2 30.4, 0 15.91 M0 47.72 C0.92 40.24, 0.63 33.21, 0 15.91 M0 15.91 C1.93 4.8, 4.1 1.31, 15.91 0 M0 15.91 C0.58 4.06, 5.94 1.89, 15.91 0" stroke="#000000" stroke-width="1" fill="none"></path></g><g transform="translate(53.024139404296875 92.82986450195312) rotate(0 44.5 12.5)"><text x="44.5" y="18" font-family="Virgil, Segoe UI Emoji" font-size="20px" fill="#000000" text-anchor="middle" style="white-space: pre;" direction="ltr">Git Repo</text></g><g stroke-linecap="round" transform="translate(253.58404541015625 57.381988525390625) rotate(0 66.33404541015625 42.5)"><path d="M21.25 0 M21.25 0 C48.65 0.56, 74.74 -1.01, 111.42 0 M21.25 0 C55.69 0.5, 90.85 0.04, 111.42 0 M111.42 0 C126.67 -1.23, 132.39 8.16, 132.67 21.25 M111.42 0 C126.53 1.62, 133.62 5.83, 132.67 21.25 M132.67 21.25 C130.79 37.34, 133.39 49.97, 132.67 63.75 M132.67 21.25 C133.68 33.03, 132.65 43.37, 132.67 63.75 M132.67 63.75 C132.02 79.55, 124.62 86.15, 111.42 85 M132.67 63.75 C134.22 79.07, 125.35 87.2, 111.42 85 M111.42 85 C94.03 84.26, 74.83 85.77, 21.25 85 M111.42 85 C86.79 85.38, 61.9 86.33, 21.25 85 M21.25 85 C8.27 83.34, -0.59 79.83, 0 63.75 M21.25 85 C6.75 83.96, -0.3 75.73, 0 63.75 M0 63.75 C-1.14 53.04, -0.36 44.1, 0 21.25 M0 63.75 C-0.34 48.83, 0.65 33.33, 0 21.25 M0 21.25 C0.78 8.82, 8.66 1.15, 21.25 0 M0 21.25 C-1.34 9, 6.44 -1.18, 21.25 0" stroke="#000000" stroke-width="1" fill="none"></path></g><g transform="translate(270.4180908203125 62.381988525390625) rotate(0 49.5 37.5)"><text x="49.5" y="18" font-family="Virgil, Segoe UI Emoji" font-size="20px" fill="#000000" text-anchor="middle" style="white-space: pre;" direction="ltr">Sealed </text><text x="49.5" y="43" font-family="Virgil, Segoe UI Emoji" font-size="20px" fill="#000000" text-anchor="middle" style="white-space: pre;" direction="ltr">Secrets </text><text x="49.5" y="68" font-family="Virgil, Segoe UI Emoji" font-size="20px" fill="#000000" text-anchor="middle" style="white-space: pre;" direction="ltr">Operartor</text></g><g stroke-linecap="round"><g transform="translate(186.491943359375 106.86514282226562) rotate(0 33.983680178597524 -2.50595926828683)"><path d="M-0.69 0.28 C10.75 -0.41, 57.29 -4.4, 68.65 -5.29 M1.16 -0.62 C12.45 -1.09, 56.39 -3.69, 67.85 -4.28" stroke="#000000" stroke-width="1" fill="none"></path></g><g transform="translate(186.491943359375 106.86514282226562) rotate(0 33.983680178597524 -2.50595926828683)"><path d="M40.73 7.98 C47.08 2.62, 55.82 0.45, 66.25 -5.97 M41.09 6.79 C48.6 5.24, 54.38 1.65, 67.79 -3.29" stroke="#000000" stroke-width="1" fill="none"></path></g><g transform="translate(186.491943359375 106.86514282226562) rotate(0 33.983680178597524 -2.50595926828683)"><path d="M39.59 -12.51 C46.09 -11.64, 55.18 -7.59, 66.25 -5.97 M39.95 -13.7 C47.94 -9.63, 54.03 -7.61, 67.79 -3.29" stroke="#000000" stroke-width="1" fill="none"></path></g></g><mask></mask><g stroke-linecap="round"><g transform="translate(386.86090087890625 104.207275390625) rotate(0 22.833597190985415 -0.4677460165976868)"><path d="M0.72 -0.15 C8.33 -0.27, 38.28 -0.84, 46.03 -0.57 M-0.36 -1.28 C7.04 -1.31, 37.08 0.19, 44.96 0.35" stroke="#000000" stroke-width="1" fill="none"></path></g><g transform="translate(386.86090087890625 104.207275390625) rotate(0 22.833597190985415 -0.4677460165976868)"><path d="M22.69 7.09 C28.26 6.52, 39.04 4.16, 46.66 -1 M23.85 6.74 C30.36 4.73, 38.39 2.02, 44.14 -0.24" stroke="#000000" stroke-width="1" fill="none"></path></g><g transform="translate(386.86090087890625 104.207275390625) rotate(0 22.833597190985415 -0.4677460165976868)"><path d="M23.26 -8.73 C28.66 -4.04, 39.25 -1.15, 46.66 -1 M24.42 -9.07 C30.89 -5.78, 38.72 -3.18, 44.14 -0.24" stroke="#000000" stroke-width="1" fill="none"></path></g></g><mask></mask></svg>