<?xml version="1.0" encoding="iso-8859-1"?>
<!-- Generator: Adobe Illustrator 19.0.0, SVG Export Plug-In . SVG Version: 6.00 Build 0)  -->
<svg version="1.1" id="Layer_1" xmlns="http://www.w3.org/2000/svg" xmlns:xlink="http://www.w3.org/1999/xlink" x="0px" y="0px"
	 viewBox="0 0 512 512" style="enable-background:new 0 0 512 512;" xml:space="preserve">
<g>
	<path style="fill:#0084FF;" d="M59.036,276.131H21.131c-5.903,0-10.682,4.78-10.682,10.682v92.03c0,5.9,4.779,10.681,10.682,10.681
		h37.905V276.131z"/>
	<path style="fill:#0084FF;" d="M21.131,236.688h37.905V123.296H21.131c-5.903,0-10.682,4.779-10.682,10.681v92.03
		C10.449,231.908,15.228,236.688,21.131,236.688z"/>
	<path style="fill:#0084FF;" d="M48.796,461.479c0,11.494,9.404,20.898,20.898,20.898h410.959c11.494,0,20.898-9.404,20.898-20.898
		V50.521c0-11.494-9.404-20.898-20.898-20.898H69.694c-11.494,0-20.898,9.404-20.898,20.898
		C48.796,50.521,48.796,461.479,48.796,461.479z"/>
</g>
<path style="fill:#FFFFFF;" d="M438.565,379.379l-78.515-78.513c7.054-13.295,11.057-28.458,11.057-44.561
	s-4.001-31.265-11.057-44.56l78.51-78.517c10.931-10.935,10.935-28.658,0-39.593l0,0c-10.934-10.934-28.657-10.934-39.591,0
	l-78.513,78.517c-13.295-7.058-28.459-11.059-44.561-11.059c-16.103,0-31.265,4.001-44.561,11.059L152.819,93.64
	c-10.935-10.934-28.658-10.934-39.593,0l0,0c-10.934,10.935-10.934,28.659,0,39.593l78.517,78.513
	c-7.054,13.295-11.058,28.458-11.058,44.56s4.001,31.265,11.058,44.561l-78.513,78.513c-10.93,10.935-10.934,28.657,0,39.592l0,0
	c10.935,10.935,28.658,10.935,39.593,0l78.512-78.512c13.296,7.055,28.458,11.058,44.558,11.058
	c16.102,0,31.265-4.002,44.561-11.058l78.517,78.512c10.934,10.935,28.657,10.935,39.592,0l0,0
	C449.499,408.041,449.499,390.314,438.565,379.379z"/>
<path d="M418.765,437.621c-10.268,0-19.922-4-27.184-11.262l-73.271-73.266c-13.302,5.823-27.815,8.874-42.417,8.874
	c-14.596,0-29.11-3.051-42.412-8.874l-73.267,73.267c-7.262,7.262-16.917,11.262-27.185,11.262s-19.923-4-27.185-11.262
	c-14.986-14.987-14.986-39.376-0.002-54.367l73.269-73.269c-5.822-13.299-8.874-27.815-8.874-42.417
	c0-14.597,3.051-29.112,8.874-42.416l-73.271-73.268c-14.989-14.989-14.99-39.38,0-54.37c7.263-7.262,16.917-11.261,27.185-11.261
	s19.922,3.999,27.185,11.26l73.27,73.268c13.301-5.823,27.816-8.874,42.418-8.874c14.602,0,29.117,3.051,42.417,8.874l73.267-73.272
	c7.262-7.262,16.916-11.261,27.184-11.261c10.268,0,19.922,3.999,27.184,11.26c14.987,14.987,14.987,39.377,0.001,54.369
	l-73.267,73.274c5.822,13.302,8.873,27.814,8.873,42.417c0,14.598-3.051,29.113-8.873,42.416l73.27,73.268
	c7.263,7.263,11.262,16.918,11.261,27.187c0,10.27-4.002,19.924-11.266,27.185C438.688,433.622,429.033,437.621,418.765,437.621z
	 M320.45,330.011c2.708,0,5.382,1.052,7.392,3.061l78.517,78.512c3.314,3.315,7.721,5.141,12.407,5.141
	c4.686,0,9.093-1.825,12.408-5.141c3.318-3.314,5.143-7.72,5.143-12.406s-1.825-9.094-5.14-12.408l-78.514-78.513
	c-3.246-3.246-3.994-8.231-1.842-12.286c6.437-12.13,9.838-25.846,9.838-39.663c0-13.821-3.402-27.535-9.838-39.662
	c-2.152-4.055-1.405-9.04,1.841-12.287l78.51-78.517c6.84-6.843,6.841-17.975,0-24.816c-3.314-3.314-7.721-5.14-12.407-5.14
	c-4.686,0-9.093,1.825-12.407,5.14l-78.513,78.517c-3.245,3.248-8.232,3.995-12.288,1.841c-12.125-6.437-25.839-9.84-39.661-9.84
	c-13.821,0-27.536,3.402-39.661,9.84c-4.055,2.154-9.042,1.406-12.288-1.84l-78.516-78.514c-3.314-3.314-7.722-5.14-12.408-5.14
	s-9.094,1.825-12.408,5.14c-6.841,6.842-6.841,17.974,0.001,24.816l78.516,78.512c3.247,3.246,3.994,8.232,1.842,12.286
	c-6.437,12.131-9.839,25.847-9.839,39.662c0,13.821,3.402,27.536,9.838,39.661c2.154,4.055,1.406,9.04-1.84,12.288l-78.513,78.513
	c-6.839,6.842-6.84,17.974,0,24.814c3.314,3.314,7.722,5.141,12.407,5.141c4.686,0,9.093-1.825,12.408-5.141l78.51-78.512
	c3.246-3.246,8.232-3.993,12.286-1.841c12.131,6.437,25.845,9.84,39.66,9.84c13.82,0,27.534-3.402,39.662-9.839
	C317.1,330.41,318.782,330.011,320.45,330.011z"/>
<circle style="fill:#074761;" cx="275.895" cy="256.293" r="44.931"/>
<path d="M275.894,276.149c-10.947,0-19.853-8.906-19.853-19.853c0-10.947,8.906-19.853,19.853-19.853s19.853,8.906,19.853,19.853
	C295.747,267.243,286.841,276.149,275.894,276.149z"/>
<path d="M275.894,311.675c-30.536,0-55.38-24.843-55.38-55.38s24.844-55.38,55.38-55.38s55.38,24.844,55.38,55.38
	S306.43,311.675,275.894,311.675z M275.894,221.814c-19.013,0-34.482,15.469-34.482,34.482c0,19.013,15.469,34.482,34.482,34.482
	c19.013,0,34.482-15.469,34.482-34.482S294.907,221.814,275.894,221.814z"/>
<path d="M456.169,201.14c-5.771,0-10.449-4.678-10.449-10.449v-4.678c0-5.771,4.678-10.449,10.449-10.449
	c5.771,0,10.449,4.678,10.449,10.449v4.678C466.618,196.462,461.94,201.14,456.169,201.14z"/>
<path d="M456.169,336.435c-5.771,0-10.449-4.678-10.449-10.449V224.494c0-5.771,4.678-10.449,10.449-10.449
	c5.771,0,10.449,4.678,10.449,10.449v101.492C466.618,331.757,461.94,336.435,456.169,336.435z"/>
<path d="M480.653,492.826H69.694c-17.285,0-31.347-14.062-31.347-31.347v-61.507H21.131C9.479,399.972,0,390.494,0,378.843v-92.03
	c0-11.652,9.479-21.131,21.131-21.131h17.216v-18.545H21.131C9.479,247.137,0,237.658,0,226.007v-92.03
	c0-11.651,9.479-21.13,21.131-21.13h17.216V50.521c0-17.285,14.062-31.347,31.347-31.347h410.959
	c17.285,0,31.347,14.062,31.347,31.347v410.958C512,478.764,497.938,492.826,480.653,492.826z M21.131,286.58
	c-0.131,0-0.233,0.102-0.233,0.233v92.03c0,0.13,0.102,0.232,0.233,0.232h27.665c5.771,0,10.449,4.678,10.449,10.449v71.956
	c0,5.762,4.687,10.449,10.449,10.449h410.959c5.762,0,10.449-4.687,10.449-10.449V50.521c0-5.762-4.687-10.449-10.449-10.449H69.694
	c-5.762,0-10.449,4.687-10.449,10.449v72.775c0,5.771-4.678,10.449-10.449,10.449H21.131c-0.131,0-0.233,0.101-0.233,0.232v92.03
	c0,0.13,0.102,0.232,0.233,0.232h27.665c5.771,0,10.449,4.678,10.449,10.449v39.443c0,5.771-4.678,10.449-10.449,10.449H21.131z"/>
<g>
</g>
<g>
</g>
<g>
</g>
<g>
</g>
<g>
</g>
<g>
</g>
<g>
</g>
<g>
</g>
<g>
</g>
<g>
</g>
<g>
</g>
<g>
</g>
<g>
</g>
<g>
</g>
<g>
</g>
</svg>
