<svg xmlns="http://www.w3.org/2000/svg" xmlns:xlink="http://www.w3.org/1999/xlink" viewBox="0 0 1000 1000">

    <style>
    .container {
      fill: none;
      stroke: black;
    }
    .k8-operator {
        stroke: white; 
        fill: white;
    }
    .label {
        stroke: white; 
        fill: white;
    }
    .iac {
        stroke: white; 
        fill: yellow;
    }
    text {
        font-family: -apple-system, BlinkMacSystemFont, "Segoe UI", 
            Roboto, Oxygen-Sans, Ubuntu, Cantarell, "Helvetica Neue", sans-serif;
        font-size: 0.7em;
        font-weight: 300;
    }
    .pod {
        stroke: black; 
        fill: none;
    }
    </style>

    <defs>
      <marker id="arrowhead" markerWidth="10" markerHeight="7" 
      refX="0" refY="3.5" orient="auto">
        <polygon points="0 0, 10 3.5, 0 7" />
      </marker>
      <path id="database" d="M256,0C136.384,0,42.667,42.176,42.667,96v320c0,53.824,93.717,96,213.333,96s213.333-42.176,213.333-96V96
			C469.333,42.176,375.616,0,256,0z M448,416c0,35.307-78.848,74.667-192,74.667S64,451.307,64,416v-64.384
			c34.197,32.043,106.347,53.717,192,53.717s157.803-21.675,192-53.717V416z M448,309.333C448,344.64,369.152,384,256,384
			S64,344.64,64,309.333v-64.384c34.197,32.043,106.347,53.717,192,53.717s157.803-21.675,192-53.717V309.333z M448,202.667
			c0,35.307-78.848,74.667-192,74.667s-192-39.36-192-74.667v-64.384C98.197,170.325,170.347,192,256,192s157.803-21.675,192-53.717
			V202.667z M256,170.667c-113.152,0-192-39.36-192-74.667c0-35.307,78.848-74.667,192-74.667S448,60.693,448,96
			C448,131.307,369.152,170.667,256,170.667z"/>
      <g id="cloudflare">
        <path d="M8.16 23h21.177v-5.86l-4.023-2.307-.694-.3-16.46.113z" fill="#fff"/>
        <path d="M22.012 22.222c.197-.675.122-1.294-.206-1.754-.3-.422-.807-.666-1.416-.694l-11.545-.15c-.075 0-.14-.038-.178-.094s-.047-.13-.028-.206c.038-.113.15-.197.272-.206l11.648-.15c1.38-.066 2.88-1.182 3.404-2.55l.666-1.735a.38.38 0 0 0 .02-.225c-.75-3.395-3.78-5.927-7.4-5.927-3.34 0-6.17 2.157-7.184 5.15-.657-.488-1.5-.75-2.392-.666-1.604.16-2.9 1.444-3.048 3.048a3.58 3.58 0 0 0 .084 1.191A4.84 4.84 0 0 0 0 22.1c0 .234.02.47.047.703.02.113.113.197.225.197H21.58a.29.29 0 0 0 .272-.206l.16-.572z" fill="#f38020"/>
        <path d="M25.688 14.803l-.32.01c-.075 0-.14.056-.17.13l-.45 1.566c-.197.675-.122 1.294.206 1.754.3.422.807.666 1.416.694l2.457.15c.075 0 .14.038.178.094s.047.14.028.206c-.038.113-.15.197-.272.206l-2.56.15c-1.388.066-2.88 1.182-3.404 2.55l-.188.478c-.038.094.028.188.13.188h8.797a.23.23 0 0 0 .225-.169A6.41 6.41 0 0 0 32 21.106a6.32 6.32 0 0 0-6.312-6.302" fill="#faae40"/>
      </g>
      <g id="browser">
        <path fill="#455B65" d="M30.791,2.375H1.209c-0.553,0-1,0.447-1,1v4.803v20.447c0,0.553,0.447,1,1,1h29.582c0.553,0,1-0.447,1-1
          V8.178V3.375C31.791,2.822,31.344,2.375,30.791,2.375z M2.209,4.375h27.582v2.803H2.209V4.375z M29.791,27.625H2.209V9.178h27.582
          V27.625z"/>
        <circle fill="#455B65" cx="4" cy="5.776" r="0.779"/>
        <circle fill="#455B65" cx="6" cy="5.776" r="0.779"/>
        <circle fill="#455B65" cx="8" cy="5.776" r="0.779"/>
        <path fill="#455B65" d="M11.188,21.163c0.147,0.186,0.365,0.281,0.585,0.281c0.165,0,0.331-0.054,0.469-0.165
          c0.323-0.259,0.376-0.73,0.116-1.054l-1.572-1.962l1.572-1.963c0.26-0.323,0.207-0.795-0.116-1.054
          c-0.321-0.259-0.795-0.209-1.054,0.116L9.24,17.795c-0.22,0.274-0.22,0.664,0,0.938L11.188,21.163z"/>
        <path fill="#455B65" d="M19.758,21.279c0.138,0.111,0.304,0.165,0.469,0.165c0.22,0,0.438-0.096,0.585-0.281l1.948-2.431
          c0.22-0.273,0.22-0.663,0-0.938l-1.948-2.432c-0.258-0.325-0.731-0.375-1.054-0.116c-0.323,0.259-0.376,0.73-0.116,1.054
          l1.572,1.963l-1.572,1.962C19.382,20.549,19.435,21.021,19.758,21.279z"/>
        <path fill="#455B65" d="M13.633,23.104c0.107,0.055,0.223,0.08,0.336,0.08c0.274,0,0.539-0.151,0.671-0.413l4.061-8.065
          c0.187-0.369,0.037-0.82-0.333-1.007c-0.367-0.187-0.82-0.037-1.007,0.333L13.3,22.097C13.113,22.467,13.263,22.917,13.633,23.104z
          "/>
      </g>
      <g id="honeycomb">
        <use xlink:href="#A" x=".5" y=".5"/>
        <symbol id="A" overflow="visible">
        <g stroke="none" fill-rule="nonzero">
        <path d="M13.43 31.048l4.484 7.74-4.484 7.762H4.484L0 38.789l4.484-7.74z" fill="#f7941e"/>
        <path d="M32.508 17.11l5.457 9.433-5.457 9.433h-10.87l-5.458-9.434 5.457-9.433z" fill="#8dc63f"/>
        <path d="M32.317 41.539l5.436 9.433-5.436 9.433H21.425l-5.457-9.433 5.457-9.433z" fill="#fdb913"/>
        <path d="M56.83 0L64 12.415l-7.17 12.437H42.47L35.3 12.415 42.47 0z" fill="#25bdbe"/></g>
        </symbol>
      </g>
      <g id="grafana">
        <linearGradient id="a" x1="9%" y1="30%" x2="9%" y2="99%">
          <stop stop-color="#F05A28"/>
          <stop offset="1" stop-color="#FBCA0A"/>
        </linearGradient>
        <path fill="url(#a)" d="M390 146c5-22-7-40-7-40-20-2-34 6-38 10-13-6-26-9-39-11-9-29-35-41-35-41a78 
          78 0 00-34 45c-16 5-31 12-43 21-24-10-53-9-77 2-3 43 16 70 20 74-5 14-9 29-10 42-37 19-48 
          56-48 56 16 17 43 38 67 38 7 12 15 22 24 32-11 32 1 58 1 58 35 2 57-15 62-18 19 5 37 9 56 
          8 11 14 27 23 45 26 11-16 21-33 21-49 14-10 26-23 35-37 22 2 39-14 39-14-3-14-10-30-22-38 
          3-23-2-46-13-65-19-30-51-47-85-47-23 0-44 11-58 27a71 71 0 00-15 65c5 19 21 35 38 39s34 2 
          43-7c3-3-1-8-5-6-7 3-14 4-22 3-59-9-45-86 10-89 11-2 26 3 35 7 32 21 39 52 26 84a92 92 
          0 01-76 51c-18 0-35-5-49-12-34-20-56-53-58-92-3-76 41-110 90-121 29-6 61-3 87 10 36 18 
          61 52 72 91 1 4 6 4 6-1 0-38-17-75-43-101z"/>
      </g>
    </defs>

    <g transform="translate(500 20)">
      <polyline fill="none" stroke="black" points="0,0 499,0 499,160 380,160 380,400 0,400 0,0" />
      <rect width="160" height="30" x="320" y="-20" />
      <text class="label"text-anchor="middle" x="400" >Microsoft Azure</text>

      <g transform="translate(15 40)">
        <rect class="container" width="350" height="340" x="0" y="0" />
        <rect width="160" height="30" x="20" y="-20"/>
        <text class="label" text-anchor="middle" x="100" >Azure Kubernetes Service</text>

        <!-- Kubernetes Services -->
        <g transform="translate(10 170)">
          <rect class="k8-operator" x="0" y="0" width="90" height="70"></rect>
          <text x="45" y="35" text-anchor="middle">Linkerd</text>
        </g>
        <g transform="translate(10 250)">
          <rect class="k8-operator" x="0" y="0" width="90" height="70" fill="red"></rect>
          <text x="45" y="35" text-anchor="middle">Kubernetes</text>
        </g>

        <!-- Services Name Sapce -->
        <g transform="translate(10 15)">
          <rect x="0" y="0" width="330" height="140" fill="none" stroke="black" stroke-dasharray="5 5" ></rect>

          <!-- Pods -->
          <g transform="translate(10 40)">
            <rect class="pod" x="0" y="0" width="70" height="30"></rect>
            <text x="35" y="15" text-anchor="middle">Envoy</text>
            <text x="35" y="25" text-anchor="middle">Proxy</text>
            <rect class="pod" x="0" y="30" width="70" height="30"></rect>
            <text x="35" y="45" text-anchor="middle">Cloudflared</text>
            <text x="35" y="55" text-anchor="middle">Sidecar</text>
          </g>
          <g transform="translate(110 90)">
            <rect class="pod" x="0" y="0" width="70" height="30"></rect>
            <text x="35" y="15" text-anchor="middle">Web App</text>
            <text x="35" y="25" text-anchor="middle">Server</text>
          </g>
          <g transform="translate(220 90)">
            <rect class="pod" x="0" y="0" width="70" height="30"></rect>
            <text x="35" y="15" text-anchor="middle">Cream gRPC</text>
            <text x="35" y="25" text-anchor="middle">Server</text>
          </g>
          <g transform="translate(110 10)">
            <rect class="pod" x="0" y="0" width="70" height="30"></rect>
            <text x="35" y="15" text-anchor="middle">Authenticate</text>
            <text x="35" y="25" text-anchor="middle">Micro UI</text>
          </g>
          <g transform="translate(110 50)">
            <rect class="pod" x="0" y="0" width="70" height="30"></rect>
            <text x="35" y="15" text-anchor="middle">API Docs</text>
            <text x="35" y="25" text-anchor="middle">Server</text>
          </g>

          <!-- Pod Arrows -->
          <line x1="80" y1="60" x2="103" y2="30" stroke="#000" marker-end="url(#arrowhead)" />
          <line x1="80" y1="60" x2="101" y2="65" stroke="#000" marker-end="url(#arrowhead)" />
          <line x1="80" y1="60" x2="105" y2="95" stroke="#000" marker-end="url(#arrowhead)" />
          <line x1="180" y1="105" x2="210" y2="105" stroke="#000" marker-end="url(#arrowhead)" />
          <line x1="290" y1="105" x2="360" y2="50" stroke="#000" marker-end="url(#arrowhead)" />
          <line x1="180" y1="20" x2="360" y2="40" stroke="#000" marker-end="url(#arrowhead)" />
          <line x1="250" y1="120" x2="220" y2="156" stroke="#000" marker-end="url(#arrowhead)" />
        </g>

        <!-- Other Services-->
        <g transform="translate(110 170)">
          <rect x="0" y="0" width="230" height="150" fill="none" stroke="black" stroke-dasharray="5 5" ></rect>

          <g transform="translate(80 10)">
            <rect class="pod" x="0" y="0" width="70" height="30"></rect>
            <text x="35" y="15" text-anchor="middle">Trillian</text>
            <text x="35" y="25" text-anchor="middle">Personality</text>
          </g>
          <g transform="translate(80 110)">
            <rect class="pod" x="0" y="0" width="70" height="30"></rect>
            <text x="35" y="15" text-anchor="middle">Trillian</text>
            <text x="35" y="25" text-anchor="middle">MySQL</text>
          </g>
          <g transform="translate(140 60)">
            <rect class="pod" x="0" y="0" width="70" height="30"></rect>
            <text x="35" y="15" text-anchor="middle">Trillian</text>
            <text x="35" y="25" text-anchor="middle">Log</text>
          </g>
          <g transform="translate(30 60)">
            <rect class="pod" x="0" y="0" width="70" height="30"></rect>
            <text x="35" y="15" text-anchor="middle">Trillian</text>
            <text x="35" y="25" text-anchor="middle">Signer</text>
          </g>
        </g>
      </g>
      <!-- Postgres -->
      <g transform="translate(385 40)">
        <g transform="scale(0.2)">
          <use href="#database"></use>
        </g>
        <text x="50" y="50" text-anchor="middle">Managed</text>
        <text x="50" y="70" text-anchor="middle">Postgres</text>
      </g>
    </g>

    <!-- Observability -->
    <g transform="translate(890 180)">
      <g transform="scale(0.19)">
        <use href="#grafana"></use>
      </g>
      <text x="50" y="100" text-anchor="middle">Managed</text>
      <text x="50" y="115" text-anchor="middle">Grafana</text>
    </g>
    <g transform="translate(910 320)">
      <use href="#honeycomb"></use>
      <text x="30" y="80" text-anchor="middle">honeycomb.io</text>
    </g>

    <!-- Infrastructure as Code -->
    <g transform="translate(250 200)">
      <rect class="container" width="200" height="220" x="0" y="0" />
      <rect width="160" height="30" x="20" y="-20"/>
      <text class="label" text-anchor="middle" x="100" >Infrastructure as Code</text>
      <!-- Pulumi -->
      <g transform="translate(50 20)">
        <rect class="iac" x="0" y="0" width="100" height="90"></rect>
        <text x="50" y="30" text-anchor="middle">Pulumi</text>
      </g>
      <!-- Container Registry -->
      <g transform="translate(50 118)">
        <rect class="iac" x="0" y="0" width="100" height="100"></rect>
        <text x="50" y="50" text-anchor="middle">Container</text>
        <text x="50" y="70" text-anchor="middle">Registry</text>
      </g>
      <!-- Push Pull -->
      <g transform="translate(1 150)">
        <rect class="label" x="0" y="0" width="70" height="30"></rect>
        <text x="35" y="15" text-anchor="middle">Docker</text>
        <text x="35" y="25" text-anchor="middle">Push</text>
      </g>
      <g transform="translate(129 150)">
        <rect class="label" x="0" y="0" width="70" height="30"></rect>
        <text x="35" y="15" text-anchor="middle">Docker</text>
        <text x="35" y="25" text-anchor="middle">Pull</text>
      </g>
    </g>

    <!-- IaC Arrows-->
    <line x1="201" y1="362" x2="243" y2="362" stroke="#000" marker-end="url(#arrowhead)" />
    <line x1="526" y1="340" x2="458" y2="362" stroke="#000" marker-end="url(#arrowhead)" />

    <!-- Dev Sec Ops -->
    <g transform="translate(1 200)">
      <rect class="container" width="200" height="220" x="0" y="0" />
      <rect width="160" height="30" x="20" y="-20"/>
      <text class="label" text-anchor="middle" x="100" >DevSecOps</text>
      <g transform="translate(0 30)">
        <rect class="label" x="50" y="0" width="100" height="30"></rect>
        <text x="100" y="20" text-anchor="middle">Pull Request</text>
      </g>
      <g transform="translate(0 80)">
        <rect class="label" x="30" y="0" width="140" height="30"></rect>
        <text x="100" y="20" text-anchor="middle">Static Security Testing</text>
      </g>
      <g transform="translate(0 120)">
        <rect class="label" x="50" y="0" width="100" height="30"></rect>
        <text x="100" y="20" text-anchor="middle">Full Clean Build</text>
      </g>
      <g transform="translate(0 160)">
        <rect class="label" x="50" y="0" width="100" height="30"></rect>
        <text x="100" y="20" text-anchor="middle">Integration Testing</text>
      </g>
    </g>

    <!-- Cloudflare -->
    <g transform="translate(300 20)">
      <g transform="scale(3)">
        <use href="#cloudflare"></use>
      </g>
      <text x="50" y="20" text-anchor="middle">Cloudflare</text>
    </g>

    <!-- Web User -->
    <g transform="translate(80 20)">
      <g transform="scale(2)">
        <use href="#browser"></use>
      </g>
      <text x="35" y="70" text-anchor="middle">Web or API User</text>
    </g>
    <!-- Cloudflare Arrows-->
    <line x1="160" y1="60" x2="300" y2="60" stroke="#000" marker-end="url(#arrowhead)" />
    <line x1="400" y1="80" x2="525" y2="150" stroke="#000" marker-end="url(#arrowhead)" />
</svg>
